<svg width="342" height="382" viewBox="0 0 342 382" fill="none" xmlns="http://www.w3.org/2000/svg">
<path d="M336 -0.000244141H224V1.99976H336V-0.000244141Z" fill="#FF267E"/>
<path d="M1 205H0V358H1V205Z" fill="#FF267E"/>
<path d="M0.224121 358.136H4.22426V350.275L2.37387 348.886H0.224121V358.136Z" fill="#FF267E"/>
<path d="M341 350L342 350L342 3L341 3L341 350Z" fill="#FF267E"/>
<path d="M341.805 358.309L337.805 358.309L337.805 350.886L339.655 349.574L341.805 349.574L341.805 358.309Z" fill="#FF267E"/>
<path d="M341.805 2.47955e-05L337.805 2.50316e-05L337.805 7.42312L339.655 8.73499L341.805 8.73499L341.805 2.47955e-05Z" fill="#FF267E"/>
<path d="M333 357H6.26172V358.323H333V357Z" fill="#FF267E"/>
<g opacity="0.8">
<path d="M296.546 366.657H296V367.203H296.546V366.657Z" fill="#FF267E"/>
<path d="M301.361 366.657H300.815V367.203H301.361V366.657Z" fill="#FF267E"/>
<path d="M306.176 366.657H305.631V367.203H306.176V366.657Z" fill="#FF267E"/>
<path d="M310.991 366.657H310.446V367.203H310.991V366.657Z" fill="#FF267E"/>
<path d="M315.807 366.657H315.262V367.203H315.807V366.657Z" fill="#FF267E"/>
<path d="M320.622 366.657H320.077V367.203H320.622V366.657Z" fill="#FF267E"/>
<path d="M325.437 366.657H324.892V367.203H325.437V366.657Z" fill="#FF267E"/>
<path d="M330.253 366.657H329.708V367.203H330.253V366.657Z" fill="#FF267E"/>
<path d="M335.068 366.657H334.522V367.203H335.068V366.657Z" fill="#FF267E"/>
<path d="M339.884 366.657H339.338V367.203H339.884V366.657Z" fill="#FF267E"/>
<path d="M296.546 371.317H296V371.862H296.546V371.317Z" fill="#FF267E"/>
<path d="M301.361 371.317H300.815V371.862H301.361V371.317Z" fill="#FF267E"/>
<path d="M306.176 371.317H305.631V371.862H306.176V371.317Z" fill="#FF267E"/>
<path d="M310.991 371.317H310.446V371.862H310.991V371.317Z" fill="#FF267E"/>
<path d="M315.807 371.317H315.262V371.862H315.807V371.317Z" fill="#FF267E"/>
<path d="M320.622 371.317H320.077V371.862H320.622V371.317Z" fill="#FF267E"/>
<path d="M325.437 371.317H324.892V371.862H325.437V371.317Z" fill="#FF267E"/>
<path d="M330.253 371.317H329.708V371.862H330.253V371.317Z" fill="#FF267E"/>
<path d="M335.068 371.317H334.522V371.862H335.068V371.317Z" fill="#FF267E"/>
<path d="M339.884 371.317H339.338V371.862H339.884V371.317Z" fill="#FF267E"/>
<path d="M296.546 375.976H296V376.521H296.546V375.976Z" fill="#FF267E"/>
<path d="M301.361 375.976H300.815V376.521H301.361V375.976Z" fill="#FF267E"/>
<path d="M306.176 375.976H305.631V376.521H306.176V375.976Z" fill="#FF267E"/>
<path d="M310.991 375.976H310.446V376.521H310.991V375.976Z" fill="#FF267E"/>
<path d="M315.807 375.976H315.262V376.521H315.807V375.976Z" fill="#FF267E"/>
<path d="M320.622 375.976H320.077V376.521H320.622V375.976Z" fill="#FF267E"/>
<path d="M325.437 375.976H324.892V376.521H325.437V375.976Z" fill="#FF267E"/>
<path d="M330.253 375.976H329.708V376.521H330.253V375.976Z" fill="#FF267E"/>
<path d="M335.068 375.976H334.522V376.521H335.068V375.976Z" fill="#FF267E"/>
<path d="M339.884 375.976H339.338V376.521H339.884V375.976Z" fill="#FF267E"/>
<path d="M296.546 380.634H296V381.18H296.546V380.634Z" fill="#FF267E"/>
<path d="M301.361 380.634H300.815V381.18H301.361V380.634Z" fill="#FF267E"/>
<path d="M306.176 380.634H305.631V381.18H306.176V380.634Z" fill="#FF267E"/>
<path d="M310.991 380.634H310.446V381.18H310.991V380.634Z" fill="#FF267E"/>
<path d="M315.807 380.634H315.262V381.18H315.807V380.634Z" fill="#FF267E"/>
<path d="M320.622 380.634H320.077V381.18H320.622V380.634Z" fill="#FF267E"/>
<path d="M325.437 380.634H324.892V381.18H325.437V380.634Z" fill="#FF267E"/>
<path d="M330.253 380.634H329.708V381.18H330.253V380.634Z" fill="#FF267E"/>
<path d="M335.068 380.634H334.522V381.18H335.068V380.634Z" fill="#FF267E"/>
<path d="M339.884 380.634H339.338V381.18H339.884V380.634Z" fill="#FF267E"/>
</g>
<g opacity="0.8">
<path d="M0.545603 367H0V367.545H0.545603V367Z" fill="#FF267E"/>
<path d="M5.36055 367H4.81494V367.545H5.36055V367Z" fill="#FF267E"/>
<path d="M10.1765 367H9.63086V367.545H10.1765V367Z" fill="#FF267E"/>
<path d="M14.9914 367H14.4458V367.545H14.9914V367Z" fill="#FF267E"/>
<path d="M19.8073 367H19.2617V367.545H19.8073V367Z" fill="#FF267E"/>
<path d="M24.6223 367H24.0767V367.545H24.6223V367Z" fill="#FF267E"/>
<path d="M29.4372 367H28.8916V367.545H29.4372V367Z" fill="#FF267E"/>
<path d="M34.2531 367H33.7075V367.545H34.2531V367Z" fill="#FF267E"/>
<path d="M39.0681 367H38.5225V367.545H39.0681V367Z" fill="#FF267E"/>
<path d="M43.884 367H43.3384V367.545H43.884V367Z" fill="#FF267E"/>
<path d="M0.545603 371.659H0V372.204H0.545603V371.659Z" fill="#FF267E"/>
<path d="M5.36055 371.659H4.81494V372.204H5.36055V371.659Z" fill="#FF267E"/>
<path d="M10.1765 371.659H9.63086V372.204H10.1765V371.659Z" fill="#FF267E"/>
<path d="M14.9914 371.659H14.4458V372.204H14.9914V371.659Z" fill="#FF267E"/>
<path d="M19.8073 371.659H19.2617V372.204H19.8073V371.659Z" fill="#FF267E"/>
<path d="M24.6223 371.659H24.0767V372.204H24.6223V371.659Z" fill="#FF267E"/>
<path d="M29.4372 371.659H28.8916V372.204H29.4372V371.659Z" fill="#FF267E"/>
<path d="M34.2531 371.659H33.7075V372.204H34.2531V371.659Z" fill="#FF267E"/>
<path d="M39.0681 371.659H38.5225V372.204H39.0681V371.659Z" fill="#FF267E"/>
<path d="M43.884 371.659H43.3384V372.204H43.884V371.659Z" fill="#FF267E"/>
<path d="M0.545603 376.318H0V376.864H0.545603V376.318Z" fill="#FF267E"/>
<path d="M5.36055 376.318H4.81494V376.864H5.36055V376.318Z" fill="#FF267E"/>
<path d="M10.1765 376.318H9.63086V376.864H10.1765V376.318Z" fill="#FF267E"/>
<path d="M14.9914 376.318H14.4458V376.864H14.9914V376.318Z" fill="#FF267E"/>
<path d="M19.8073 376.318H19.2617V376.864H19.8073V376.318Z" fill="#FF267E"/>
<path d="M24.6223 376.318H24.0767V376.864H24.6223V376.318Z" fill="#FF267E"/>
<path d="M29.4372 376.318H28.8916V376.864H29.4372V376.318Z" fill="#FF267E"/>
<path d="M34.2531 376.318H33.7075V376.864H34.2531V376.318Z" fill="#FF267E"/>
<path d="M39.0681 376.318H38.5225V376.864H39.0681V376.318Z" fill="#FF267E"/>
<path d="M43.884 376.318H43.3384V376.864H43.884V376.318Z" fill="#FF267E"/>
<path d="M0.545603 380.976H0V381.522H0.545603V380.976Z" fill="#FF267E"/>
<path d="M5.36055 380.976H4.81494V381.522H5.36055V380.976Z" fill="#FF267E"/>
<path d="M10.1765 380.976H9.63086V381.522H10.1765V380.976Z" fill="#FF267E"/>
<path d="M14.9914 380.976H14.4458V381.522H14.9914V380.976Z" fill="#FF267E"/>
<path d="M19.8073 380.976H19.2617V381.522H19.8073V380.976Z" fill="#FF267E"/>
<path d="M24.6223 380.976H24.0767V381.522H24.6223V380.976Z" fill="#FF267E"/>
<path d="M29.4372 380.976H28.8916V381.522H29.4372V380.976Z" fill="#FF267E"/>
<path d="M34.2531 380.976H33.7075V381.522H34.2531V380.976Z" fill="#FF267E"/>
<path d="M39.0681 380.976H38.5225V381.522H39.0681V380.976Z" fill="#FF267E"/>
<path d="M43.884 380.976H43.3384V381.522H43.884V380.976Z" fill="#FF267E"/>
</g>
</svg>
