<svg width="81" height="81" viewBox="0 0 81 81" fill="none" xmlns="http://www.w3.org/2000/svg">
<path d="M23.945 21H29.5493H56.9116L61.8566 25.8701V58.9865L56.9116 63.8566H23.945L19 58.9865V25.8701L23.945 21Z" stroke="#FF267E" stroke-width="2"/>
<g filter="url(#filter0_dd_2621_14498)">
<path d="M31.6098 52.8593C28.4308 52.8593 25.8364 50.2665 25.8364 47.0894C25.8364 43.9123 28.4308 41.3195 31.6098 41.3195C34.7888 41.3195 37.3831 43.9123 37.3831 47.0894C37.3831 50.2665 34.7888 52.8593 31.6098 52.8593ZM31.6098 42.5428C29.1068 42.5428 27.0788 44.5696 27.0788 47.0711C27.0788 49.5727 29.1068 51.5994 31.6098 51.5994C34.1128 51.5994 36.1408 49.5727 36.1408 47.0711C36.1408 44.5879 34.1128 42.5428 31.6098 42.5428Z" fill="#FF267E"/>
<path d="M39.9593 55.6895C37.2553 55.6895 34.8984 53.7723 34.3138 51.143L34.2407 50.7778L34.533 50.5404C35.5562 49.6822 36.1408 48.4041 36.1408 47.0711C36.1408 46.7607 36.1043 46.4321 36.0312 46.1034L35.9581 45.7382L36.2504 45.5008C37.2918 44.6244 38.6073 44.1497 39.9775 44.1497C43.1565 44.1497 45.7509 46.7425 45.7509 49.9196C45.7509 53.0967 43.1565 55.6895 39.9593 55.6895ZM35.6293 51.2343C36.1956 53.115 37.9678 54.4662 39.9775 54.4662C42.4806 54.4662 44.5085 52.4394 44.5085 49.9379C44.5085 47.4363 42.4806 45.4095 39.9775 45.4095C39.0275 45.4095 38.0957 45.7017 37.3284 46.2677C37.3649 46.5416 37.3832 46.8338 37.3832 47.1077C37.3832 48.6597 36.7437 50.1387 35.6293 51.2343Z" fill="#FF267E"/>
<path d="M42.5169 45.4826L41.439 44.8618C41.512 44.734 48.3451 32.902 43.3025 26.4565L44.2708 25.6896C49.8432 32.8107 42.8092 44.9714 42.5169 45.4826Z" fill="#FF267E"/>
<path d="M33.9299 42.0681L32.7241 41.7942C32.7424 41.7029 34.6425 33.4315 45.7142 32.2446L45.8421 33.4863C35.7022 34.5636 34.003 41.7577 33.9299 42.0681Z" fill="#FF267E"/>
<path d="M30.1298 50.4857C28.1566 49.6458 27.6816 47.2903 27.645 47.199L28.8691 46.9617C28.8691 46.9799 29.2528 48.7693 30.6231 49.3536L30.1298 50.4857Z" fill="#FF267E"/>
<path d="M40.398 53.754C38.5344 53.754 37.2555 52.3481 37.2007 52.2933L38.1142 51.4534C38.1325 51.4716 39.1556 52.5672 40.5258 52.4941L40.5807 53.7358C40.5258 53.754 40.471 53.754 40.398 53.754Z" fill="#FF267E"/>
<path d="M53.5339 37.6128C49.551 37.6128 47.2307 35.02 46.646 29.8892C46.6278 29.7248 46.6826 29.5422 46.7922 29.4144C46.9018 29.2866 47.0663 29.2136 47.249 29.1953H47.3038C49.9529 29.1953 54.6484 30.8021 55.4705 36.8277C55.4888 36.992 55.4522 37.1564 55.3426 37.2842C55.233 37.412 55.0868 37.5033 54.9224 37.5215C54.4291 37.5763 53.9724 37.6128 53.5339 37.6128ZM47.9798 30.4917C48.8019 35.7504 51.5242 36.3895 53.5339 36.3895C53.7348 36.3895 53.9358 36.3895 54.1368 36.3712C53.1867 31.6055 49.551 30.6743 47.9798 30.4917Z" fill="#05C48A"/>
</g>
<defs>
<filter id="filter0_dd_2621_14498" x="0.836426" y="0.689575" width="79.6387" height="80" filterUnits="userSpaceOnUse" color-interpolation-filters="sRGB">
<feFlood flood-opacity="0" result="BackgroundImageFix"/>
<feColorMatrix in="SourceAlpha" type="matrix" values="0 0 0 0 0 0 0 0 0 0 0 0 0 0 0 0 0 0 127 0" result="hardAlpha"/>
<feOffset dy="3"/>
<feGaussianBlur stdDeviation="7"/>
<feComposite in2="hardAlpha" operator="out"/>
<feColorMatrix type="matrix" values="0 0 0 0 1 0 0 0 0 0.14902 0 0 0 0 0.494118 0 0 0 0.6 0"/>
<feBlend mode="normal" in2="BackgroundImageFix" result="effect1_dropShadow_2621_14498"/>
<feColorMatrix in="SourceAlpha" type="matrix" values="0 0 0 0 0 0 0 0 0 0 0 0 0 0 0 0 0 0 127 0" result="hardAlpha"/>
<feOffset/>
<feGaussianBlur stdDeviation="12.5"/>
<feComposite in2="hardAlpha" operator="out"/>
<feColorMatrix type="matrix" values="0 0 0 0 1 0 0 0 0 0.14902 0 0 0 0 0.494118 0 0 0 0.6 0"/>
<feBlend mode="normal" in2="effect1_dropShadow_2621_14498" result="effect2_dropShadow_2621_14498"/>
<feBlend mode="normal" in="SourceGraphic" in2="effect2_dropShadow_2621_14498" result="shape"/>
</filter>
</defs>
</svg>
