<svg width="57" height="57" viewBox="0 0 57 57" fill="none" xmlns="http://www.w3.org/2000/svg">
<rect width="57" height="57" fill="#E3E3E3"/>
<path d="M17 39L17 35.8571L20.2 35.8571L20.2 32.7143L23.4 32.7143L23.4 29.5714L26.6 29.5714L26.6 26.4286L23.4 26.4286L23.4 23.2857L20.2 23.2857L20.2 20.1429L17 20.1429L17 17L23.4 17L23.4 20.1429L26.6 20.1429L26.6 23.2857L29.8 23.2857L29.8 26.4286L33 26.4286L33 29.5714L29.8 29.5714L29.8 32.7143L26.6 32.7143L26.6 35.8571L23.4 35.8571L23.4 39L17 39Z" fill="#FF267E"/>
<path d="M41 17L41 20.1429L37.8 20.1429L37.8 23.2857L34.6 23.2857L34.6 26.4286L31.4 26.4286L31.4 29.5714L34.6 29.5714L34.6 32.7143L37.8 32.7143L37.8 35.8571L41 35.8571L41 39L34.6 39L34.6 35.8571L31.4 35.8571L31.4 32.7143L28.2 32.7143L28.2 29.5714L25 29.5714L25 26.4286L28.2 26.4286L28.2 23.2857L31.4 23.2857L31.4 20.1429L34.6 20.1429L34.6 17L41 17Z" fill="#FF267E"/>
</svg>
