<svg width="65" height="57" viewBox="0 0 65 57" fill="none" xmlns="http://www.w3.org/2000/svg">
<path d="M57.5447 7.09651H50.4442V0H43.3477H36.2512H29.1507H22.0542H14.9577V7.09651H7.8612V14.197H0.760742V21.2935V28.39V35.4865V42.587H7.8612V49.6835H14.9577V56.78H22.0542H29.1507H36.2512H43.3477H50.4442V49.6835H57.5447V42.587H64.6412V35.4865V28.39V21.2935V14.197H57.5447V7.09651Z" fill="white"/>
<rect x="8" y="28" width="7" height="15" fill="#F1F1F1"/>
<rect x="51" y="14" width="7" height="15" fill="#F1F1F1"/>
<rect x="15" y="43" width="7" height="7" fill="#F1F1F1"/>
<rect x="44" y="7" width="7" height="7" fill="#F1F1F1"/>
<path d="M15.2607 31.5V29H12.7607V26.5H17.7607V29H25.2607V21.5H12.7607V14H27.7607V16.5H17.7607V19H27.7607V21.5H30.2607V29H27.7607V31.5H15.2607ZM37.7607 31.5V29H35.2607V26.5H32.7607V19H35.2607V16.5H37.7607V14H45.2607V16.5H47.7607V19H50.2607V26.5H47.7607V29H45.2607V31.5H37.7607ZM40.2607 29H45.2607V19H42.7607V16.5H37.7607V26.5H40.2607V29Z" fill="#FF267E"/>
<path d="M22 47.625V38H31.625V39.375H24.75V42.125H30.25V43.5H24.75V47.625H22ZM34.375 47.625V46.25H33V44.875H35.75V46.25H39.875V43.5H34.375V42.125H33V39.375H34.375V38H41.25V39.375H42.625V40.75H39.875V39.375H35.75V42.125H41.25V43.5H42.625V46.25H41.25V47.625H34.375Z" fill="#FF267E"/>
</svg>
