<svg width="97" height="97" viewBox="0 0 97 97" fill="none" xmlns="http://www.w3.org/2000/svg">
<rect x="11" y="10" width="81" height="79" stroke="#FF267E" stroke-width="2"/>
<g filter="url(#filter0_dd_2621_14136)">
<path d="M43.9455 56.024C43.9455 57.6032 42.6572 58.8914 41.0781 58.8914C39.4989 58.8914 38.2107 57.6032 38.2107 56.024C38.2107 54.4449 39.4989 53.1566 41.0781 53.1566C42.678 53.1566 43.9455 54.4449 43.9455 56.024Z" fill="#FF267E"/>
<path d="M33.0161 50.8295C34.5997 50.8295 35.8835 49.5457 35.8835 47.9621C35.8835 46.3785 34.5997 45.0947 33.0161 45.0947C31.4325 45.0947 30.1487 46.3785 30.1487 47.9621C30.1487 49.5457 31.4325 50.8295 33.0161 50.8295Z" fill="#FF267E"/>
<path d="M46.2727 47.9621C46.2727 49.5413 47.561 50.8295 49.1401 50.8295C50.7192 50.8295 52.0075 49.5413 52.0075 47.9621C52.0075 46.383 50.7192 45.0947 49.1401 45.0947C47.561 45.074 46.2727 46.3622 46.2727 47.9621Z" fill="#FF267E"/>
<path d="M46.2727 64.1068C46.2727 62.5276 47.561 61.2394 49.1401 61.2394C50.7192 61.2394 52.0075 62.5276 52.0075 64.1068C52.0075 65.6859 50.7192 66.9742 49.1401 66.9742C47.561 66.9742 46.2727 65.6859 46.2727 64.1068Z" fill="#FF267E"/>
<path d="M35.8835 64.1068C35.8835 62.5276 34.5952 61.2394 33.0161 61.2394C31.4369 61.2394 30.1487 62.5276 30.1487 64.1068C30.1487 65.6859 31.4369 66.9742 33.0161 66.9742C34.5952 66.9742 35.8835 65.6859 35.8835 64.1068Z" fill="#FF267E"/>
<path d="M50.9062 33.0018C50.9062 34.5809 49.6179 35.8692 48.0388 35.8692C46.4596 35.8692 45.1714 34.5809 45.1714 33.0018C45.1714 31.4227 46.4596 30.1344 48.0388 30.1344C49.6179 30.1136 50.9062 31.4019 50.9062 33.0018Z" fill="#33AB9C"/>
<path d="M64.1836 35.8692C65.7672 35.8692 67.051 34.5854 67.051 33.0018C67.051 31.4182 65.7672 30.1344 64.1836 30.1344C62.5999 30.1344 61.3162 31.4182 61.3162 33.0018C61.3162 34.5854 62.5999 35.8692 64.1836 35.8692Z" fill="#33AB9C"/>
<path d="M61.2329 49.1466C61.2329 47.5674 62.5212 46.2792 64.1003 46.2792C65.6795 46.2792 66.9677 47.5674 66.9677 49.1466C66.9677 50.7257 65.6795 52.014 64.1003 52.014C62.5212 52.014 61.2329 50.7257 61.2329 49.1466Z" fill="#33AB9C"/>
<path d="M66.6976 56.7305H55.3319V45.3648C55.3319 43.3909 53.7112 41.7702 51.7373 41.7702H40.3716V30.4045C40.3716 27.641 42.6156 25.397 45.3791 25.397H66.6976C69.4611 25.397 71.7051 27.641 71.7051 30.4045V51.723C71.7051 54.4865 69.4611 56.7305 66.6976 56.7305ZM56.7448 55.3176H66.6976C68.6715 55.3176 70.2922 53.6969 70.2922 51.723V30.4045C70.2922 28.4306 68.6715 26.8099 66.6976 26.8099H45.3791C43.4052 26.8099 41.7845 28.4306 41.7845 30.4045V40.3573H51.7373C54.5008 40.3573 56.7448 42.6013 56.7448 45.3648V55.3176Z" fill="#05C48A"/>
<path d="M52.7553 71.6909H29.4006C27.1981 71.6909 25.4111 69.9039 25.4111 67.7014V44.3675C25.4111 42.1442 27.1981 40.3573 29.4006 40.3573H52.7345C54.937 40.3573 56.7239 42.1442 56.7239 44.3467V67.6807C56.7447 69.9039 54.9578 71.6909 52.7553 71.6909ZM29.4006 41.7702C27.9669 41.7702 26.8241 42.9338 26.8241 44.3467V67.6807C26.8241 69.1144 27.9876 70.2572 29.4006 70.2572H52.7345C54.1682 70.2572 55.311 69.0936 55.311 67.6807V44.3675C55.311 42.9338 54.1474 41.791 52.7345 41.791H29.4006V41.7702Z" fill="#FF267E"/>
</g>
<defs>
<filter id="filter0_dd_2621_14136" x="0.411133" y="0.396973" width="96.2939" height="96.2939" filterUnits="userSpaceOnUse" color-interpolation-filters="sRGB">
<feFlood flood-opacity="0" result="BackgroundImageFix"/>
<feColorMatrix in="SourceAlpha" type="matrix" values="0 0 0 0 0 0 0 0 0 0 0 0 0 0 0 0 0 0 127 0" result="hardAlpha"/>
<feOffset dy="3"/>
<feGaussianBlur stdDeviation="7"/>
<feComposite in2="hardAlpha" operator="out"/>
<feColorMatrix type="matrix" values="0 0 0 0 1 0 0 0 0 0.14902 0 0 0 0 0.494118 0 0 0 0.6 0"/>
<feBlend mode="normal" in2="BackgroundImageFix" result="effect1_dropShadow_2621_14136"/>
<feColorMatrix in="SourceAlpha" type="matrix" values="0 0 0 0 0 0 0 0 0 0 0 0 0 0 0 0 0 0 127 0" result="hardAlpha"/>
<feOffset/>
<feGaussianBlur stdDeviation="12.5"/>
<feComposite in2="hardAlpha" operator="out"/>
<feColorMatrix type="matrix" values="0 0 0 0 1 0 0 0 0 0.14902 0 0 0 0 0.494118 0 0 0 0.6 0"/>
<feBlend mode="normal" in2="effect1_dropShadow_2621_14136" result="effect2_dropShadow_2621_14136"/>
<feBlend mode="normal" in="SourceGraphic" in2="effect2_dropShadow_2621_14136" result="shape"/>
</filter>
</defs>
</svg>
