<svg width="40" height="41" viewBox="0 0 40 41" fill="none" xmlns="http://www.w3.org/2000/svg">
<rect width="40" height="41" rx="4" fill="#05C48A"/>
<path d="M14.3086 22.4991C13.3556 22.4991 12.5656 23.3174 12.5514 24.32C12.5337 25.3367 13.352 26.1799 14.3546 26.1976H14.3971C15.3997 26.1976 16.2287 25.3828 16.2428 24.3802C16.2605 23.3635 15.4457 22.5203 14.3086 22.4991Z" fill="white"/>
<path d="M25.5103 22.4991C24.5432 22.4991 23.7744 23.2997 23.7567 24.32C23.739 25.3367 24.5574 26.1799 25.5599 26.1976H25.6024C26.605 26.1976 27.434 25.3828 27.4482 24.3802C27.4694 23.3635 26.6511 22.5203 25.5103 22.4991Z" fill="white"/>
<path d="M27.4517 8.58716C25.5563 8.58716 23.7248 9.25317 22.2511 10.4329H17.596C16.1542 9.33111 14.3758 8.58716 12.5513 8.58716C7.96713 8.58716 4.23672 12.3778 4.23672 16.962C4.23672 20.9368 7.0425 24.2598 10.7764 25.0746C10.7268 24.8195 10.6985 24.5609 10.702 24.2917C10.7339 22.2866 12.3529 20.6534 14.3085 20.6534C16.4766 20.6924 18.1239 22.3432 18.092 24.4121C18.0885 24.7097 18.0353 24.9967 17.9609 25.2765H22.042C21.9606 24.9613 21.9039 24.6353 21.9074 24.2917C21.9429 22.2511 23.5229 20.6534 25.5067 20.6534C27.6784 20.6924 29.3293 22.3432 29.2974 24.4121C29.2938 24.6389 29.2619 24.8621 29.2194 25.0782C32.9569 24.2633 35.7662 20.9368 35.7662 16.962C35.7662 12.3778 32.0358 8.58716 27.4517 8.58716ZM12.5513 17.8866H11.6267V18.8112C11.6267 19.3214 11.2122 19.7359 10.702 19.7359C10.1919 19.7359 9.77742 19.3214 9.77742 18.8112V17.8866H8.85279C8.34265 17.8866 7.92816 17.4721 7.92816 16.962C7.92816 16.4518 8.34265 16.0373 8.85279 16.0373H9.77742V15.1127C9.77742 14.6026 10.1919 14.1881 10.702 14.1881C11.2122 14.1881 11.6267 14.6026 11.6267 15.1127V16.0373H12.5513C13.0614 16.0373 13.4759 16.4518 13.4759 16.962C13.4724 17.4721 13.0614 17.8866 12.5513 17.8866ZM18.092 19.7323H16.2463C15.7361 19.7323 15.3217 19.3178 15.3217 18.8077C15.3217 18.2975 15.7361 17.883 16.2463 17.883H18.092C18.6021 17.883 19.0166 18.2975 19.0166 18.8077C19.0166 19.3214 18.6021 19.7323 18.092 19.7323ZM23.7567 19.7323H21.911C21.4008 19.7323 20.9863 19.3178 20.9863 18.8077C20.9863 18.2975 21.4008 17.883 21.911 17.883H23.7567C24.2668 17.883 24.6813 18.2975 24.6813 18.8077C24.6813 19.3214 24.2668 19.7323 23.7567 19.7323ZM29.3009 14.1916C29.8111 14.1916 30.2255 14.6061 30.2255 15.1162C30.2255 15.6264 29.8111 16.0409 29.3009 16.0409C28.7908 16.0409 28.3763 15.6264 28.3763 15.1162C28.3763 14.6061 28.7908 14.1916 29.3009 14.1916ZM27.4517 17.8866C26.9415 17.8866 26.527 17.4721 26.527 16.962C26.527 16.4518 26.9415 16.0373 27.4517 16.0373C27.9618 16.0373 28.3763 16.4518 28.3763 16.962C28.3763 17.4721 27.9618 17.8866 27.4517 17.8866ZM29.3009 19.7323C28.7908 19.7323 28.3763 19.3178 28.3763 18.8077C28.3763 18.2975 28.7908 17.883 29.3009 17.883C29.8111 17.883 30.2255 18.2975 30.2255 18.8077C30.2255 19.3214 29.8111 19.7323 29.3009 19.7323ZM31.1466 17.8866C30.6365 17.8866 30.222 17.4721 30.222 16.962C30.222 16.4518 30.6365 16.0373 31.1466 16.0373C31.6568 16.0373 32.0713 16.4518 32.0713 16.962C32.0713 17.4721 31.6568 17.8866 31.1466 17.8866Z" fill="white"/>
<path d="M35.7486 30.9837L35.2704 23.4449C33.5274 25.5422 30.9519 26.9167 28.0611 27.0868C27.4057 27.6749 26.5484 28.0433 25.6061 28.0433H25.5635C25.273 28.0398 24.9932 27.9937 24.7239 27.9264L25.9568 32.8188C26.6901 35.3163 29.1735 36.8078 31.6852 36.3295C34.2218 35.8548 35.9683 33.5556 35.7486 30.9837Z" fill="white"/>
<path d="M15.3252 27.9122C15.0276 27.9902 14.7194 28.0468 14.3971 28.0468H14.3545C13.4193 28.0291 12.5868 27.6642 11.9456 27.0903C9.12915 26.9203 6.62096 25.613 4.88152 23.6079L4.25448 30.9837C4.03129 33.5556 5.77781 35.8584 8.31789 36.3331C10.8438 36.8113 13.3166 35.3093 14.0463 32.8223L15.4315 27.9512C15.3961 27.9441 15.3642 27.9228 15.3252 27.9122Z" fill="white"/>
<path d="M30.5976 6.78746C30.2186 5.65382 29.1629 4.89215 27.969 4.89215H25.0888C23.8949 4.89215 22.8392 5.65382 22.4602 6.78746L21.9217 8.40291C23.5619 7.33657 25.4856 6.74141 27.4518 6.74141C28.6137 6.74141 29.7297 6.94688 30.7712 7.30823L30.5976 6.78746Z" fill="white"/>
<path d="M17.543 6.78746C17.164 5.65382 16.1083 4.89215 14.9144 4.89215H12.0342C10.8404 4.89215 9.78465 5.65382 9.40558 6.78746L9.23199 7.30823C10.2735 6.94688 11.3859 6.74141 12.5514 6.74141C14.5105 6.74141 16.4413 7.32949 18.078 8.39228L17.543 6.78746Z" fill="white"/>
</svg>
