<svg width="58" height="67" viewBox="0 0 58 67" fill="none" xmlns="http://www.w3.org/2000/svg">
<path d="M14.5 5.5V0H42.5V5.5H48V11H53V15H57.5V20H53V24H48V29.5H10V24H5V20H0V15H5V11H10V5.5H14.5Z" fill="#FF267E"/>
<rect x="26" y="26" width="4" height="17" fill="#FF267E"/>
<rect x="15.207" y="25" width="4" height="17" transform="rotate(41.2426 15.207 25)" fill="#FF267E"/>
<rect width="4.09147" height="17.2996" transform="matrix(-0.764596 0.64451 0.673813 0.738902 45.1284 25)" fill="#FF267E"/>
<rect x="28" y="37" width="4" height="17" fill="#A31951"/>
<rect x="6.10742" y="35.2098" width="4" height="17" fill="#A31951"/>
<rect width="4" height="17" transform="matrix(-1 0 0 1 54.7852 35)" fill="#A31951"/>
<rect x="15" y="5" width="5" height="6" transform="rotate(-90 15 5)" fill="#A31951"/>
<rect x="37" y="5" width="5" height="6" transform="rotate(-90 37 5)" fill="#FF93BF"/>
<rect x="10" y="10" width="5" height="6" transform="rotate(-90 10 10)" fill="#A31951"/>
<rect x="42" y="10" width="5" height="6" transform="rotate(-90 42 10)" fill="#FF93BF"/>
<rect x="5" y="15" width="5" height="6" transform="rotate(-90 5 15)" fill="#A31951"/>
<rect x="47" y="15" width="5" height="6" transform="rotate(-90 47 15)" fill="#FF93BF"/>
<rect y="20" width="5" height="6" transform="rotate(-90 0 20)" fill="#A31951"/>
<rect x="52" y="20" width="5" height="6" transform="rotate(-90 52 20)" fill="#FF93BF"/>
<rect x="5" y="24" width="5" height="6" transform="rotate(-90 5 24)" fill="#A31951"/>
<rect x="47" y="24" width="5" height="6" transform="rotate(-90 47 24)" fill="#FF93BF"/>
<rect x="10" y="29" width="5" height="6" transform="rotate(-90 10 29)" fill="#A31951"/>
<rect x="43" y="29" width="5" height="6" transform="rotate(-90 43 29)" fill="#FF93BF"/>
<rect x="26" y="49" width="4" height="17" fill="#FF267E"/>
<rect x="4.29297" y="53.2499" width="4" height="17" transform="rotate(-38.0575 4.29297 53.2499)" fill="#FF267E"/>
<rect width="4.1002" height="17.2623" transform="matrix(-0.798958 -0.601387 -0.631434 0.77543 56.4805 53.2499)" fill="#FF267E"/>
</svg>
