<svg width="38" height="37" viewBox="0 0 38 37" fill="none" xmlns="http://www.w3.org/2000/svg">
<g opacity="0.5">
<path d="M33.7495 15.9015L21.5287 3.92405L23.9022 1.59961L36.1229 13.5753L33.7495 15.9015Z" fill="#291A81"/>
<path d="M33.7494 16.4978L20.9209 3.92405L23.9022 1.00333L36.7307 13.5753L33.7494 16.4978ZM22.1383 3.92405L33.7512 15.3034L35.5151 13.5753L23.9022 2.1959L22.1383 3.92405Z" fill="#162BED"/>
<path d="M37.1473 15.1749L22.27 0.596285L22.8778 0L37.7551 14.5804L37.1473 15.1749Z" fill="#162BED"/>
<path d="M4.00577 21.0985L16.2247 33.0742L13.853 35.4004L1.63232 23.4247L4.00577 21.0985Z" fill="#291A81"/>
<path d="M13.853 35.9967L1.02448 23.4247L4.00571 20.504L16.8342 33.076L13.853 35.9967ZM2.24186 23.4247L13.8548 34.8041L15.6186 33.076L4.00751 21.6966L2.24186 23.4247Z" fill="#162BED"/>
<path d="M14.8774 37L3.05176e-05 22.4196L0.60782 21.8233L15.4851 36.4037L14.8774 37Z" fill="#162BED"/>
<path d="M27.0331 20.1398L32.5609 14.7215L22.7317 5.08987L17.2039 10.5082L18.2229 16.7978L17.1425 17.8564L10.7238 16.8585L5.19415 22.2768L15.0252 31.9084L20.553 26.4901L19.4438 20.288L20.7045 19.0526L27.0331 20.1398Z" fill="#291A81"/>
<path d="M15.0252 32.5047L4.58817 22.275L10.5759 16.4068L16.9947 17.4065L17.7648 16.6514L16.7458 10.36L22.7335 4.49179L33.1705 14.7215L27.1792 20.5933L20.8506 19.506L19.9074 20.4308L21.0165 26.6329L15.0252 32.5047ZM5.80374 22.2768L15.0252 31.3139L20.0913 26.349L18.9821 20.1469L20.5584 18.6009L26.887 19.6881L31.9531 14.7233L22.7317 5.68615L17.662 10.6528L18.681 16.9441L17.2904 18.3063L10.8717 17.3066L5.80374 22.2768Z" fill="#162BED"/>
<path d="M15.8332 21.3538L8.03293 22.3589L14.9062 29.0948L15.8332 21.3538Z" fill="#162BED"/>
<path d="M21.7758 15.5284L22.802 7.88382L29.677 14.6215L21.7758 15.5284Z" fill="#162BED"/>
<path d="M14.8954 22.9659L14.2876 22.3696L22.5892 14.2341L23.197 14.8304L14.8954 22.9659Z" fill="#162BED"/>
</g>
</svg>
