<svg width="40" height="45" viewBox="0 0 40 45" fill="none" xmlns="http://www.w3.org/2000/svg">
<path d="M24.9634 3.05176e-05H22.0044V2.95901H24.9634V3.05176e-05Z" fill="white"/>
<path d="M27.9224 3.05176e-05H24.9634V2.95901H27.9224V3.05176e-05Z" fill="white"/>
<path d="M30.8833 3.05176e-05H27.9243V2.95901H30.8833V3.05176e-05Z" fill="white"/>
<path d="M36.8013 2.95901H33.8423V5.918H36.8013V2.95901Z" fill="white"/>
<path d="M22.0029 2.95901H19.0439V5.918H22.0029V2.95901Z" fill="white"/>
<path d="M33.8423 3.05176e-05H30.8833V2.95901H33.8423V3.05176e-05Z" fill="white"/>
<path d="M33.8423 20.7179H30.8833V23.6768H33.8423V20.7179Z" fill="white"/>
<path d="M36.8013 17.7572H33.8423V20.7162H36.8013V17.7572Z" fill="white"/>
<path d="M39.7617 5.91962H36.8027V8.8786H39.7617V5.91962Z" fill="white"/>
<path d="M39.7617 8.8786H36.8027V11.8376H39.7617V8.8786Z" fill="white"/>
<path d="M39.7617 11.8393H36.8027V14.7983H39.7617V11.8393Z" fill="white"/>
<path d="M39.7617 14.7982H36.8027V17.7572H39.7617V14.7982Z" fill="white"/>
<path d="M33.8423 20.7179H30.8833V23.6768H33.8423V20.7179Z" fill="white"/>
<path d="M30.8833 20.7179H27.9243V23.6768H30.8833V20.7179Z" fill="white"/>
<path d="M30.5332 26.6375H27.5742V29.5964H30.5332V26.6375Z" fill="white"/>
<path d="M27.9224 23.6769H24.9634V26.6359H27.9224V23.6769Z" fill="white"/>
<path d="M27.9224 20.7179H24.9634V23.6768H27.9224V20.7179Z" fill="white"/>
<path d="M19.0439 8.8786H16.085V11.8376H19.0439V8.8786Z" fill="white"/>
<path d="M19.0439 5.91962H16.085V8.8786H19.0439V5.91962Z" fill="white"/>
<path d="M19.0439 11.8393H16.085V14.7983H19.0439V11.8393Z" fill="white"/>
<path d="M19.0439 14.7982H16.085V17.7572H19.0439V14.7982Z" fill="white"/>
<path d="M24.9634 20.7179H22.0044V23.6768H24.9634V20.7179Z" fill="white"/>
<path d="M22.0029 17.7572H19.0439V20.7162H22.0029V17.7572Z" fill="white"/>
<path d="M11.0103 22.9785H13.2119V25.1802H11.0103V22.9785Z" fill="white"/>
<path d="M8.80909 22.9785H11.0107V25.1802H8.80909V22.9785Z" fill="white"/>
<path d="M6.60596 22.9785H8.80762V25.1802H6.60596V22.9785Z" fill="white"/>
<path d="M2.20264 25.1802H4.4043V27.3819H2.20264V25.1802Z" fill="white"/>
<path d="M13.2134 25.1802H15.415V27.3819H13.2134V25.1802Z" fill="white"/>
<path d="M4.4043 22.9785H6.60596V25.1802H4.4043V22.9785Z" fill="white"/>
<path d="M4.4043 38.3938H6.60596V40.5955H4.4043V38.3938Z" fill="white"/>
<path d="M2.20264 36.1909H4.4043V38.3926H2.20264V36.1909Z" fill="white"/>
<path d="M5.48363e-06 27.3831H2.20166V29.5847H5.48363e-06V27.3831Z" fill="white"/>
<path d="M5.48363e-06 29.5847H2.20166V31.7863H5.48363e-06V29.5847Z" fill="white"/>
<path d="M5.48363e-06 31.7877H2.20166V33.9893H5.48363e-06V31.7877Z" fill="white"/>
<path d="M5.48363e-06 33.9892H2.20166V36.1909H5.48363e-06V33.9892Z" fill="white"/>
<path d="M4.4043 38.3938H6.60596V40.5955H4.4043V38.3938Z" fill="white"/>
<path d="M6.60596 38.3938H8.80762V40.5955H6.60596V38.3938Z" fill="white"/>
<path d="M8.4253 42.7983H10.627V45H8.4253V42.7983Z" fill="white"/>
<path d="M8.80909 40.5955H11.0107V42.7971H8.80909V40.5955Z" fill="white"/>
<path d="M8.80909 38.3938H11.0107V40.5955H8.80909V38.3938Z" fill="white"/>
<path d="M15.415 29.5847H17.6167V31.7863H15.415V29.5847Z" fill="white"/>
<path d="M15.415 27.3831H17.6167V29.5847H15.415V27.3831Z" fill="white"/>
<path d="M15.415 31.7877H17.6167V33.9893H15.415V31.7877Z" fill="white"/>
<path d="M15.415 33.9892H17.6167V36.1909H15.415V33.9892Z" fill="white"/>
<path d="M11.0103 38.3938H13.2119V40.5955H11.0103V38.3938Z" fill="white"/>
<path d="M13.2134 36.1909H15.415V38.3926H13.2134V36.1909Z" fill="white"/>
</svg>
