<svg width="40" height="41" viewBox="0 0 40 41" fill="none" xmlns="http://www.w3.org/2000/svg">
<rect width="40" height="41" rx="4" fill="#FF267E"/>
<path d="M4.23529 21.2874C4.47973 25.4606 6.39984 29.2583 9.28708 31.9294C11.2887 27.7952 15.2706 23.838 19.0754 23.2677V21.2874H4.23529Z" fill="white"/>
<path d="M20.9247 4.59802V15.5766C24.3717 14.8681 27.684 10.8826 29.1684 7.57737C26.8196 5.88045 23.9926 4.7787 20.9247 4.59802Z" fill="white"/>
<path d="M9.29417 8.78894C6.40338 11.4636 4.47973 15.2613 4.23529 19.4381H19.0754V17.4507C15.3096 16.8732 11.3099 12.9232 9.29417 8.78894Z" fill="white"/>
<path d="M20.9247 21.2874V23.2712C24.9916 23.8876 28.8141 28.1565 30.6492 31.9365C33.5364 29.2618 35.5203 25.4641 35.7648 21.2874H20.9247Z" fill="white"/>
<path d="M20.9247 25.1559V36.1274C23.9891 35.9467 26.8161 34.845 29.1648 33.1516C27.6486 29.7755 24.3256 25.8644 20.9247 25.1559Z" fill="white"/>
<path d="M30.6421 8.7854C28.8 12.5618 24.9845 16.8272 20.9247 17.4223V19.4381H35.7648C35.5203 15.2613 33.5329 11.4601 30.6421 8.7854Z" fill="white"/>
<path d="M10.7715 7.57737C12.4259 11.2298 15.9367 14.9354 19.0754 15.5766V4.59802C16.0111 4.7787 13.1203 5.88045 10.7715 7.57737Z" fill="white"/>
<path d="M10.7679 33.1445C13.1166 34.8414 16.0074 35.9467 19.0753 36.1274V25.1488C15.9259 25.7865 12.4223 29.4885 10.7679 33.1445Z" fill="white"/>
</svg>
