<svg width="492" height="16" viewBox="0 0 492 16" fill="none" xmlns="http://www.w3.org/2000/svg">
<path d="M486 0H0V2H486V0Z" fill="#FF267E"/>
<path d="M363.601 0.116577L356.4 8.9504V14.1405L367.83 0.116577H363.601Z" fill="#FF267E"/>
<path d="M363.439 15.2477H359.209L371.541 0.116638H375.771L363.439 15.2477Z" fill="#FF267E"/>
<path d="M371.38 15.2477H367.15L379.482 0.116638H383.712L371.38 15.2477Z" fill="#FF267E"/>
<path d="M379.32 15.2477H375.09L387.422 0.116638H391.652L379.32 15.2477Z" fill="#FF267E"/>
<path d="M387.261 15.2477H383.031L395.363 0.116638H399.593L387.261 15.2477Z" fill="#FF267E"/>
<path d="M395.201 15.2477H390.972L403.305 0.116638H407.535L395.201 15.2477Z" fill="#FF267E"/>
<path d="M403.143 15.2477H398.914L411.246 0.116638H415.475L403.143 15.2477Z" fill="#FF267E"/>
<path d="M411.084 15.2477H406.854L419.186 0.116638H423.416L411.084 15.2477Z" fill="#FF267E"/>
<path d="M419.024 15.2477H414.795L427.127 0.116638H431.356L419.024 15.2477Z" fill="#FF267E"/>
<path d="M426.965 15.2477H422.735L435.067 0.116638H439.297L426.965 15.2477Z" fill="#FF267E"/>
<path d="M434.906 15.2477H430.676L443.009 0.116638H447.239L434.906 15.2477Z" fill="#FF267E"/>
<path d="M442.847 15.2477H438.618L450.95 0.116638H455.179L442.847 15.2477Z" fill="#FF267E"/>
<path d="M450.788 15.2477H446.558L458.89 0.116638H463.12L450.788 15.2477Z" fill="#FF267E"/>
<path d="M458.729 15.2477H454.499L466.831 0.116638H471.061L458.729 15.2477Z" fill="#FF267E"/>
<path d="M466.669 15.2477H462.44L474.772 0.116638H479.001L466.669 15.2477Z" fill="#FF267E"/>
<path d="M474.61 15.2477H470.38L482.713 0.116638H486.943L474.61 15.2477Z" fill="#FF267E"/>
<path d="M490.654 0.116638L478.322 15.2477H482.552L491.486 4.28536V0.116638H490.654Z" fill="#FF267E"/>
<path d="M486.263 15.2477H490.492L491.486 14.0286V8.8385L486.263 15.2477Z" fill="#FF267E"/>
</svg>
