<svg width="136" height="16" viewBox="0 0 136 16" fill="none" xmlns="http://www.w3.org/2000/svg">
<path d="M7.60055 0.116577L0.400146 8.9504V14.1405L11.8302 0.116577H7.60055Z" fill="#FF267E"/>
<path d="M7.43891 15.2477H3.20923L15.5413 0.116577H19.771L7.43891 15.2477Z" fill="#FF267E"/>
<path d="M15.3796 15.2477H11.1499L23.4819 0.116577H27.7116L15.3796 15.2477Z" fill="#FF267E"/>
<path d="M23.32 15.2477H19.0903L31.4223 0.116577H35.652L23.32 15.2477Z" fill="#FF267E"/>
<path d="M31.2607 15.2477H27.031L39.363 0.116577H43.5927L31.2607 15.2477Z" fill="#FF267E"/>
<path d="M39.2011 15.2477H34.9714L47.3047 0.116577H51.5344L39.2011 15.2477Z" fill="#FF267E"/>
<path d="M47.1433 15.2477H42.9136L55.2456 0.116577H59.4753L47.1433 15.2477Z" fill="#FF267E"/>
<path d="M55.0837 15.2477H50.854L63.186 0.116577H67.4157L55.0837 15.2477Z" fill="#FF267E"/>
<path d="M63.0244 15.2477H58.7947L71.1267 0.116577H75.3564L63.0244 15.2477Z" fill="#FF267E"/>
<path d="M70.965 15.2477H66.7354L79.0674 0.116577H83.297L70.965 15.2477Z" fill="#FF267E"/>
<path d="M78.9055 15.2477H74.6758L87.0091 0.116577H91.2388L78.9055 15.2477Z" fill="#FF267E"/>
<path d="M86.8474 15.2477H82.6177L94.9497 0.116577H99.1794L86.8474 15.2477Z" fill="#FF267E"/>
<path d="M94.788 15.2477H90.5583L102.89 0.116577H107.12L94.788 15.2477Z" fill="#FF267E"/>
<path d="M102.729 15.2477H98.499L110.831 0.116577H115.061L102.729 15.2477Z" fill="#FF267E"/>
<path d="M110.669 15.2477H106.44L118.772 0.116577H123.001L110.669 15.2477Z" fill="#FF267E"/>
<path d="M118.61 15.2477H114.38L126.713 0.116577H130.943L118.61 15.2477Z" fill="#FF267E"/>
<path d="M134.654 0.116577L122.322 15.2477H126.552L135.487 4.2853V0.116577H134.654Z" fill="#FF267E"/>
<path d="M130.263 15.2477H134.492L135.486 14.0286V8.8385L130.263 15.2477Z" fill="#FF267E"/>
</svg>
