<svg width="125" height="42" viewBox="0 0 125 42" fill="none" xmlns="http://www.w3.org/2000/svg">
<g opacity="0.8">
<path d="M1.54257 0H0V1.54262H1.54257V0Z" fill="#FF267E"/>
<path d="M15.1561 6.10352e-05H13.6135V1.54268H15.1561V6.10352e-05Z" fill="#FF267E"/>
<path d="M28.7715 6.10352e-05H27.2289V1.54268H28.7715V6.10352e-05Z" fill="#FF267E"/>
<path d="M42.385 6.10352e-05H40.8424V1.54268H42.385V6.10352e-05Z" fill="#FF267E"/>
<path d="M56.0005 6.10352e-05H54.4579V1.54268H56.0005V6.10352e-05Z" fill="#FF267E"/>
<path d="M69.614 6.10352e-05H68.0714V1.54268H69.614V6.10352e-05Z" fill="#FF267E"/>
<path d="M83.2275 6.10352e-05H81.6849V1.54268H83.2275V6.10352e-05Z" fill="#FF267E"/>
<path d="M96.8429 6.10352e-05H95.3004V1.54268H96.8429V6.10352e-05Z" fill="#FF267E"/>
<path d="M110.456 6.10352e-05H108.914V1.54268H110.456V6.10352e-05Z" fill="#FF267E"/>
<path d="M124.072 6.10352e-05H122.529V1.54268H124.072V6.10352e-05Z" fill="#FF267E"/>
<path d="M1.54257 13.1726H0V14.7152H1.54257V13.1726Z" fill="#FF267E"/>
<path d="M15.1561 13.1726H13.6135V14.7152H15.1561V13.1726Z" fill="#FF267E"/>
<path d="M28.7715 13.1726H27.2289V14.7152H28.7715V13.1726Z" fill="#FF267E"/>
<path d="M42.385 13.1726H40.8424V14.7152H42.385V13.1726Z" fill="#FF267E"/>
<path d="M56.0005 13.1726H54.4579V14.7152H56.0005V13.1726Z" fill="#FF267E"/>
<path d="M69.614 13.1726H68.0714V14.7152H69.614V13.1726Z" fill="#FF267E"/>
<path d="M83.2275 13.1726H81.6849V14.7152H83.2275V13.1726Z" fill="#FF267E"/>
<path d="M96.8429 13.1726H95.3004V14.7152H96.8429V13.1726Z" fill="#FF267E"/>
<path d="M110.456 13.1726H108.914V14.7152H110.456V13.1726Z" fill="#FF267E"/>
<path d="M124.072 13.1726H122.529V14.7152H124.072V13.1726Z" fill="#FF267E"/>
<path d="M1.54257 26.3451H0V27.8876H1.54257V26.3451Z" fill="#FF267E"/>
<path d="M15.1561 26.3451H13.6135V27.8876H15.1561V26.3451Z" fill="#FF267E"/>
<path d="M28.7715 26.3451H27.2289V27.8876H28.7715V26.3451Z" fill="#FF267E"/>
<path d="M42.385 26.3451H40.8424V27.8876H42.385V26.3451Z" fill="#FF267E"/>
<path d="M56.0005 26.3451H54.4579V27.8876H56.0005V26.3451Z" fill="#FF267E"/>
<path d="M69.614 26.3451H68.0714V27.8876H69.614V26.3451Z" fill="#FF267E"/>
<path d="M83.2275 26.3451H81.6849V27.8876H83.2275V26.3451Z" fill="#FF267E"/>
<path d="M96.8429 26.3451H95.3004V27.8876H96.8429V26.3451Z" fill="#FF267E"/>
<path d="M110.456 26.3451H108.914V27.8876H110.456V26.3451Z" fill="#FF267E"/>
<path d="M124.072 26.3451H122.529V27.8876H124.072V26.3451Z" fill="#FF267E"/>
<path d="M1.54257 39.5157H0V41.0582H1.54257V39.5157Z" fill="#FF267E"/>
<path d="M15.1561 39.5157H13.6135V41.0582H15.1561V39.5157Z" fill="#FF267E"/>
<path d="M28.7715 39.5157H27.2289V41.0582H28.7715V39.5157Z" fill="#FF267E"/>
<path d="M42.385 39.5157H40.8424V41.0582H42.385V39.5157Z" fill="#FF267E"/>
<path d="M56.0005 39.5157H54.4579V41.0582H56.0005V39.5157Z" fill="#FF267E"/>
<path d="M69.614 39.5157H68.0714V41.0582H69.614V39.5157Z" fill="#FF267E"/>
<path d="M83.2275 39.5157H81.6849V41.0582H83.2275V39.5157Z" fill="#FF267E"/>
<path d="M96.8429 39.5157H95.3004V41.0582H96.8429V39.5157Z" fill="#FF267E"/>
<path d="M110.456 39.5157H108.914V41.0582H110.456V39.5157Z" fill="#FF267E"/>
<path d="M124.072 39.5157H122.529V41.0582H124.072V39.5157Z" fill="#FF267E"/>
</g>
</svg>
