<svg width="82" height="82" viewBox="0 0 82 82" fill="none" xmlns="http://www.w3.org/2000/svg">
<path d="M10.2308 1H20.6923H71.7692L81 10.0909V71.9091L71.7692 81H10.2308L1 71.9091V10.0909L10.2308 1Z" stroke="#FF267E" stroke-width="2"/>
<path d="M40.7711 36.4103L33.4569 28.6071L27.9075 37.7285L27.8862 37.7498C26.8656 39.4507 27.3972 41.662 29.0982 42.7039C30.7991 43.7457 33.0316 43.1929 34.0735 41.4919C34.4349 40.9178 35.0303 40.854 35.4981 41.3431C36.8588 42.8102 39.1551 42.8739 40.601 41.5132C42.0468 40.1524 42.1318 37.8561 40.7711 36.4103Z" fill="#FF267E"/>
<path d="M37.582 47.4241L33.2871 47.8706C32.7555 47.9344 32.3728 47.339 32.6492 46.8713L34.499 43.767C34.7329 43.3843 35.2645 43.3417 35.5621 43.6607L38.0073 46.3184C38.3475 46.7224 38.1136 47.3815 37.582 47.4241Z" fill="#FF267E"/>
<path d="M52.7205 68.7501C52.359 68.7501 51.9975 68.7075 51.6361 68.6225L31.0331 63.4558C30.6291 63.3495 30.2251 63.1794 29.8424 62.9668L27.1208 61.3508L49.6162 63.307C51.2534 63.4558 52.7205 62.2013 52.848 60.5854L56.1862 22.1222C56.1862 22.0159 56.2075 21.9096 56.1862 21.7608L56.1649 20.804L63.1389 22.5475C65.5203 23.1428 66.9661 25.5454 66.3708 27.9268L56.9729 65.3694C56.5051 67.368 54.7404 68.7501 52.7205 68.7501ZM38.2197 63.7747L51.9763 67.2192C52.2102 67.283 52.4653 67.3042 52.6992 67.3042C54.06 67.3042 55.2507 66.3687 55.5908 65.0505L64.9887 27.6078C65.3927 26.0132 64.4146 24.376 62.82 23.9933L57.6108 22.6963L54.2939 60.7342C54.0812 63.1369 51.9338 64.9867 49.4886 64.774L38.2197 63.7747Z" fill="#33AB9C"/>
<path d="M24.9306 63.5833C22.9745 63.5833 21.3373 62.1162 21.1247 60.1388L17.0211 20.5487C16.9148 19.5282 17.2125 18.5288 17.8504 17.7209C18.4882 16.9342 19.4025 16.4239 20.4231 16.3176L42.7483 14C42.8759 14 43.0247 14 43.1523 14C45.1084 14 46.7456 15.4671 46.9582 17.4445L51.0618 57.0346C51.2744 59.1395 49.7436 61.0106 47.6386 61.2445L25.3134 63.562C25.2071 63.562 25.0582 63.5833 24.9306 63.5833ZM43.1523 15.4458C43.0672 15.4458 42.9822 15.4458 42.8972 15.4671L20.5932 17.7634C19.9553 17.8272 19.3812 18.1461 18.9985 18.6351C18.5733 19.1454 18.3819 19.762 18.467 20.3999L22.5705 59.99C22.6981 61.287 23.8675 62.2438 25.1858 62.1162L47.511 59.7986C48.808 59.6711 49.7648 58.4804 49.6372 57.1834L45.5124 17.5933C45.3848 16.3601 44.3642 15.4458 43.1523 15.4458Z" fill="#FF267E"/>
<path d="M49.8928 64.774C49.7652 64.774 49.6376 64.774 49.5101 64.7527L30.034 63.0518L30.0127 61.6059L46.8948 59.8624C48.532 59.6923 49.7227 58.2252 49.5526 56.5881L45.5766 18.1886C45.5553 18.0398 45.5341 17.891 45.4915 17.7209L45.2151 16.7216L53.6137 17.4445C56.0588 17.6571 57.8661 19.8046 57.6535 22.2497L54.3153 60.7129C54.124 62.988 52.1678 64.774 49.8928 64.774ZM37.7096 62.2651L49.6376 63.3069C51.2748 63.4557 52.7419 62.2013 52.8695 60.5853L56.2076 22.1221C56.3565 20.485 55.1233 19.0391 53.4861 18.8903L47.0437 18.3375L50.9984 56.4392C51.2536 58.8631 49.4676 61.0531 47.0437 61.3083L37.7096 62.2651Z" fill="#FF267E"/>
</svg>
