<svg width="82" height="82" viewBox="0 0 82 82" fill="none" xmlns="http://www.w3.org/2000/svg">
<path d="M10.2308 1H20.6923H71.7692L81 10.0909V71.9091L71.7692 81H10.2308L1 71.9091V10.0909L10.2308 1Z" stroke="#FF267E" stroke-width="2"/>
<path d="M40.7711 36.4103L33.4569 28.6071L27.9075 37.7285L27.8862 37.7498C26.8657 39.4508 27.3972 41.662 29.0982 42.7039C30.7992 43.7457 33.0317 43.1929 34.0735 41.4919C34.435 40.9179 35.0303 40.8541 35.4981 41.3431C36.8589 42.8102 39.1552 42.874 40.601 41.5132C42.0468 40.1524 42.1319 37.8561 40.7711 36.4103Z" fill="#FF267E"/>
<path d="M37.5819 47.4241L33.287 47.8706C32.7554 47.9344 32.3727 47.339 32.6491 46.8713L34.4989 43.767C34.7328 43.3843 35.2644 43.3417 35.562 43.6607L38.0072 46.3184C38.3474 46.7224 38.1135 47.3815 37.5819 47.4241Z" fill="#FF267E"/>
<path d="M52.7205 68.75C52.359 68.75 51.9975 68.7075 51.6361 68.6224L31.0331 63.4557C30.6291 63.3494 30.2251 63.1793 29.8424 62.9667L27.1208 61.3508L49.6162 63.3069C51.2534 63.4557 52.7205 62.2013 52.848 60.5853L56.1862 22.1221C56.1862 22.0158 56.2075 21.9095 56.1862 21.7607L56.1649 20.8039L63.1389 22.5474C65.5203 23.1427 66.9661 25.5454 66.3708 27.9267L56.9729 65.3693C56.5051 67.368 54.7404 68.75 52.7205 68.75ZM38.2197 63.7747L51.9763 67.2191C52.2102 67.2829 52.4653 67.3042 52.6992 67.3042C54.06 67.3042 55.2507 66.3686 55.5908 65.0504L64.9887 27.6078C65.3927 26.0131 64.4146 24.3759 62.82 23.9932L57.6108 22.6962L54.2939 60.7342C54.0812 63.1368 51.9338 64.9866 49.4886 64.774L38.2197 63.7747Z" fill="#33AB9C"/>
<path d="M24.9306 63.5833C22.9745 63.5833 21.3373 62.1162 21.1247 60.1388L17.0211 20.5487C16.9148 19.5282 17.2125 18.5288 17.8504 17.7209C18.4882 16.9342 19.4025 16.4239 20.4231 16.3176L42.7483 14C42.8759 14 43.0247 14 43.1523 14C45.1084 14 46.7456 15.4671 46.9582 17.4445L51.0618 57.0346C51.2744 59.1395 49.7436 61.0106 47.6386 61.2445L25.3134 63.562C25.2071 63.562 25.0582 63.5833 24.9306 63.5833ZM43.1523 15.4458C43.0672 15.4458 42.9822 15.4458 42.8972 15.4671L20.5932 17.7634C19.9553 17.8272 19.3812 18.1461 18.9985 18.6351C18.5733 19.1454 18.3819 19.762 18.467 20.3999L22.5705 59.99C22.6981 61.287 23.8675 62.2438 25.1858 62.1162L47.511 59.7986C48.808 59.6711 49.7648 58.4804 49.6372 57.1834L45.5124 17.5933C45.3848 16.3601 44.3642 15.4458 43.1523 15.4458Z" fill="#FF267E"/>
<path d="M49.8928 64.774C49.7653 64.774 49.6377 64.774 49.5101 64.7528L30.034 63.0518L30.0127 61.606L46.8949 59.8625C48.532 59.6924 49.7227 58.2253 49.5526 56.5881L45.5766 18.1887C45.5553 18.0399 45.5341 17.891 45.4916 17.7209L45.2152 16.7216L53.6137 17.4445C56.0588 17.6572 57.8661 19.8046 57.6535 22.2498L54.3153 60.713C54.124 62.988 52.1679 64.774 49.8928 64.774ZM37.7096 62.2651L49.6377 63.307C51.2749 63.4558 52.742 62.2013 52.8695 60.5854L56.2077 22.1222C56.3565 20.485 55.1233 19.0392 53.4861 18.8904L47.0437 18.3375L50.9985 56.4393C51.2536 58.8632 49.4676 61.0532 47.0437 61.3083L37.7096 62.2651Z" fill="#FF267E"/>
</svg>
