<svg width="107" height="107" viewBox="0 0 107 107" fill="none" xmlns="http://www.w3.org/2000/svg">
<path d="M22.2308 17H32.6923H83.7692L93 26.0909V87.9091L83.7692 97H22.2308L13 87.9091V26.0909L22.2308 17Z" stroke="#FF267E" stroke-width="2"/>
<g filter="url(#filter0_dd_2621_14118)">
<path d="M36.5388 76.4715C30.6046 76.4715 25.7617 71.6316 25.7617 65.7009C25.7617 59.7702 30.6046 54.9302 36.5388 54.9302C42.473 54.9302 47.3159 59.7702 47.3159 65.7009C47.3159 71.6316 42.473 76.4715 36.5388 76.4715ZM36.5388 57.2138C31.8665 57.2138 28.0808 60.9972 28.0808 65.6668C28.0808 70.3363 31.8665 74.1197 36.5388 74.1197C41.2111 74.1197 44.9968 70.3363 44.9968 65.6668C44.9968 61.0313 41.2111 57.2138 36.5388 57.2138Z" fill="#FF267E"/>
<path d="M52.1247 81.7546C47.0772 81.7546 42.6777 78.1758 41.5864 73.2676L41.45 72.5859L41.9956 72.1428C43.9055 70.5408 44.9968 68.1549 44.9968 65.6668C44.9968 65.0873 44.9286 64.4738 44.7922 63.8603L44.6558 63.1786L45.2015 62.7355C47.1454 61.0995 49.601 60.2133 52.1588 60.2133C58.093 60.2133 62.9359 65.0533 62.9359 70.9839C62.9359 76.9146 58.093 81.7546 52.1247 81.7546ZM44.0419 73.438C45.0992 76.9487 48.4073 79.471 52.1588 79.471C56.8312 79.471 60.6168 75.6876 60.6168 71.018C60.6168 66.3485 56.8312 62.5651 52.1588 62.5651C50.3854 62.5651 48.646 63.1104 47.2136 64.1671C47.2819 64.6783 47.316 65.2237 47.316 65.7349C47.316 68.6321 46.1223 71.393 44.0419 73.438Z" fill="#FF267E"/>
<path d="M56.8991 62.7014L54.887 61.5426C55.0234 61.304 67.7785 39.2173 58.3656 27.1855L60.1732 25.7539C70.5751 39.0468 57.4448 61.7471 56.8991 62.7014Z" fill="#FF267E"/>
<path d="M40.8703 56.3277L38.6194 55.8164C38.6535 55.646 42.2004 40.2057 62.8678 37.9902L63.1066 40.308C44.1784 42.319 41.0067 55.7482 40.8703 56.3277Z" fill="#FF267E"/>
<path d="M33.7764 72.0406C30.0931 70.4727 29.2064 66.0758 29.1382 65.9054L31.4232 65.4623C31.4232 65.4964 32.1394 68.8366 34.6972 69.9273L33.7764 72.0406Z" fill="#FF267E"/>
<path d="M52.9434 78.1417C49.4647 78.1417 47.0774 75.5172 46.9751 75.4149L48.6803 73.847C48.7144 73.8811 50.6243 75.9262 53.1822 75.7899L53.2845 78.1076C53.1822 78.1417 53.0798 78.1417 52.9434 78.1417Z" fill="#FF267E"/>
<path d="M77.4645 48.011C70.0297 48.011 65.6984 43.171 64.607 33.5933C64.5729 33.2865 64.6753 32.9457 64.8799 32.7071C65.0845 32.4685 65.3915 32.3322 65.7325 32.2981H65.8348C70.78 32.2981 79.5449 35.2975 81.0796 46.5454C81.1137 46.8522 81.0455 47.1589 80.8409 47.3975C80.6362 47.6361 80.3634 47.8065 80.0565 47.8406C79.1356 47.9429 78.283 48.011 77.4645 48.011ZM67.0967 34.7181C68.6314 44.5344 73.713 45.7274 77.4645 45.7274C77.8397 45.7274 78.2148 45.7274 78.59 45.6933C76.8165 36.7972 70.0297 35.0589 67.0967 34.7181Z" fill="#05C48A"/>
</g>
<defs>
<filter id="filter0_dd_2621_14118" x="0.761719" y="0.753906" width="105.326" height="106.001" filterUnits="userSpaceOnUse" color-interpolation-filters="sRGB">
<feFlood flood-opacity="0" result="BackgroundImageFix"/>
<feColorMatrix in="SourceAlpha" type="matrix" values="0 0 0 0 0 0 0 0 0 0 0 0 0 0 0 0 0 0 127 0" result="hardAlpha"/>
<feOffset dy="3"/>
<feGaussianBlur stdDeviation="7"/>
<feComposite in2="hardAlpha" operator="out"/>
<feColorMatrix type="matrix" values="0 0 0 0 1 0 0 0 0 0.14902 0 0 0 0 0.494118 0 0 0 0.6 0"/>
<feBlend mode="normal" in2="BackgroundImageFix" result="effect1_dropShadow_2621_14118"/>
<feColorMatrix in="SourceAlpha" type="matrix" values="0 0 0 0 0 0 0 0 0 0 0 0 0 0 0 0 0 0 127 0" result="hardAlpha"/>
<feOffset/>
<feGaussianBlur stdDeviation="12.5"/>
<feComposite in2="hardAlpha" operator="out"/>
<feColorMatrix type="matrix" values="0 0 0 0 1 0 0 0 0 0.14902 0 0 0 0 0.494118 0 0 0 0.6 0"/>
<feBlend mode="normal" in2="effect1_dropShadow_2621_14118" result="effect2_dropShadow_2621_14118"/>
<feBlend mode="normal" in="SourceGraphic" in2="effect2_dropShadow_2621_14118" result="shape"/>
</filter>
</defs>
</svg>
