<svg width="107" height="107" viewBox="0 0 107 107" fill="none" xmlns="http://www.w3.org/2000/svg">
<path d="M22.2308 17H32.6923H83.7692L93 26.0909V87.9091L83.7692 97H22.2308L13 87.9091V26.0909L22.2308 17Z" stroke="#FF267E" stroke-width="2"/>
<g filter="url(#filter0_dd_2020_1170)">
<path d="M36.5389 76.4715C30.6047 76.4715 25.7618 71.6315 25.7618 65.7008C25.7618 59.7701 30.6047 54.9301 36.5389 54.9301C42.4731 54.9301 47.316 59.7701 47.316 65.7008C47.316 71.6315 42.4731 76.4715 36.5389 76.4715ZM36.5389 57.2138C31.8665 57.2138 28.0809 60.9971 28.0809 65.6667C28.0809 70.3363 31.8665 74.1197 36.5389 74.1197C41.2112 74.1197 44.9969 70.3363 44.9969 65.6667C44.9969 61.0312 41.2112 57.2138 36.5389 57.2138Z" fill="#FF267E"/>
<path d="M52.1246 81.7546C47.0771 81.7546 42.6776 78.1758 41.5863 73.2676L41.4499 72.5859L41.9955 72.1428C43.9054 70.5408 44.9967 68.1549 44.9967 65.6668C44.9967 65.0873 44.9285 64.4738 44.7921 63.8603L44.6557 63.1786L45.2014 62.7355C47.1453 61.0995 49.6009 60.2133 52.1587 60.2133C58.0929 60.2133 62.9358 65.0533 62.9358 70.9839C62.9358 76.9146 58.0929 81.7546 52.1246 81.7546ZM44.0418 73.438C45.0991 76.9487 48.4072 79.471 52.1587 79.471C56.8311 79.471 60.6167 75.6876 60.6167 71.018C60.6167 66.3485 56.8311 62.5651 52.1587 62.5651C50.3853 62.5651 48.6459 63.1104 47.2136 64.1671C47.2818 64.6783 47.3159 65.2237 47.3159 65.7349C47.3159 68.6321 46.1222 71.393 44.0418 73.438Z" fill="#FF267E"/>
<path d="M56.8992 62.7014L54.8871 61.5425C55.0235 61.3039 67.7786 39.2172 58.3657 27.1854L60.1733 25.7538C70.5752 39.0468 57.4449 61.747 56.8992 62.7014Z" fill="#FF267E"/>
<path d="M40.8702 56.3276L38.6193 55.8163C38.6534 55.6459 42.2003 40.2057 62.8677 37.9902L63.1065 40.3079C44.1784 42.3189 41.0066 55.7482 40.8702 56.3276Z" fill="#FF267E"/>
<path d="M33.7764 72.0406C30.0931 70.4727 29.2063 66.0758 29.1381 65.9054L31.4231 65.4623C31.4231 65.4964 32.1393 68.8366 34.6972 69.9273L33.7764 72.0406Z" fill="#FF267E"/>
<path d="M52.9433 78.1417C49.4646 78.1417 47.0773 75.5172 46.975 75.4149L48.6802 73.847C48.7143 73.8811 50.6242 75.9262 53.1821 75.7899L53.2844 78.1076C53.1821 78.1417 53.0797 78.1417 52.9433 78.1417Z" fill="#FF267E"/>
<path d="M77.4645 48.011C70.0297 48.011 65.6984 43.171 64.607 33.5932C64.5729 33.2865 64.6753 32.9456 64.8799 32.707C65.0845 32.4685 65.3915 32.3321 65.7325 32.298H65.8348C70.78 32.298 79.5449 35.2975 81.0796 46.5453C81.1137 46.8521 81.0455 47.1589 80.8409 47.3974C80.6362 47.636 80.3634 47.8065 80.0565 47.8405C79.1356 47.9428 78.283 48.011 77.4645 48.011ZM67.0967 34.718C68.6314 44.5344 73.713 45.7273 77.4645 45.7273C77.8397 45.7273 78.2148 45.7273 78.59 45.6932C76.8165 36.7972 70.0297 35.0589 67.0967 34.718Z" fill="#05C48A"/>
</g>
<defs>
<filter id="filter0_dd_2020_1170" x="0.76181" y="0.753845" width="105.326" height="106.001" filterUnits="userSpaceOnUse" color-interpolation-filters="sRGB">
<feFlood flood-opacity="0" result="BackgroundImageFix"/>
<feColorMatrix in="SourceAlpha" type="matrix" values="0 0 0 0 0 0 0 0 0 0 0 0 0 0 0 0 0 0 127 0" result="hardAlpha"/>
<feOffset dy="3"/>
<feGaussianBlur stdDeviation="7"/>
<feComposite in2="hardAlpha" operator="out"/>
<feColorMatrix type="matrix" values="0 0 0 0 1 0 0 0 0 0.14902 0 0 0 0 0.494118 0 0 0 0.6 0"/>
<feBlend mode="normal" in2="BackgroundImageFix" result="effect1_dropShadow_2020_1170"/>
<feColorMatrix in="SourceAlpha" type="matrix" values="0 0 0 0 0 0 0 0 0 0 0 0 0 0 0 0 0 0 127 0" result="hardAlpha"/>
<feOffset/>
<feGaussianBlur stdDeviation="12.5"/>
<feComposite in2="hardAlpha" operator="out"/>
<feColorMatrix type="matrix" values="0 0 0 0 1 0 0 0 0 0.14902 0 0 0 0 0.494118 0 0 0 0.6 0"/>
<feBlend mode="normal" in2="effect1_dropShadow_2020_1170" result="effect2_dropShadow_2020_1170"/>
<feBlend mode="normal" in="SourceGraphic" in2="effect2_dropShadow_2020_1170" result="shape"/>
</filter>
</defs>
</svg>
