<svg width="79" height="70" viewBox="0 0 79 70" fill="none" xmlns="http://www.w3.org/2000/svg">
<path d="M69.7848 8.72129H61.0587V0H52.3374H43.6161H34.89H26.1687H17.4474V8.72129H8.72614V17.4474H0V26.1687V34.89V43.6113V52.3374H8.72614V61.0587H17.4474V69.78H26.1687H34.89H43.6161H52.3374H61.0587V61.0587H69.7848V52.3374H78.5061V43.6113V34.89V26.1687V17.4474H69.7848V8.72129Z" fill="white"/>
<rect x="8.60278" y="34.4106" width="8.60268" height="18.4343" fill="#F1F1F1"/>
<rect x="61.4478" y="17.2053" width="8.60268" height="18.4343" fill="#F1F1F1"/>
<rect x="17.2053" y="52.845" width="8.60268" height="8.60268" fill="#F1F1F1"/>
<rect x="52.845" y="8.60278" width="8.60268" height="8.60268" fill="#F1F1F1"/>
<rect x="22.1211" y="33.1819" width="33.1818" height="22.1212" fill="#FF267E"/>
<rect x="24.5791" y="35.6399" width="9.83163" height="2.45791" fill="white"/>
<rect x="24.5791" y="45.4714" width="9.83163" height="2.45791" transform="rotate(-90 24.5791 45.4714)" fill="white"/>
<rect x="20.8923" y="25.8081" width="35.6397" height="6.14477" fill="#FF267E"/>
<rect x="34.4106" y="22.1213" width="7.37372" height="2.45791" fill="#FF267E"/>
<rect x="34.4106" y="15.9766" width="2.45791" height="6.14477" fill="#FF267E"/>
<rect x="39.3264" y="15.9766" width="2.45791" height="6.14477" fill="#FF267E"/>
<rect x="47.9292" y="15.9766" width="2.45791" height="6.14477" fill="#FF267E"/>
<rect x="25.8081" y="15.9766" width="2.45791" height="6.14477" fill="#FF267E"/>
<rect x="36.8687" y="13.5186" width="2.45791" height="2.45791" fill="#FF267E"/>
<rect x="41.7844" y="13.5186" width="6.14477" height="2.45791" fill="#FF267E"/>
<rect x="28.2659" y="13.5186" width="6.14477" height="2.45791" fill="#FF267E"/>
<rect x="41.7844" y="22.1213" width="6.14477" height="2.45791" fill="#FF267E"/>
<rect x="28.2659" y="22.1213" width="6.14477" height="2.45791" fill="#FF267E"/>
</svg>
