<svg width="97" height="97" viewBox="0 0 97 97" fill="none" xmlns="http://www.w3.org/2000/svg">
<rect x="11" y="10" width="81" height="79" stroke="#FF267E" stroke-width="2"/>
<g filter="url(#filter0_dd_2020_1188)">
<path d="M43.9455 56.024C43.9455 57.6032 42.6573 58.8914 41.0781 58.8914C39.499 58.8914 38.2107 57.6032 38.2107 56.024C38.2107 54.4449 39.499 53.1566 41.0781 53.1566C42.678 53.1566 43.9455 54.4449 43.9455 56.024Z" fill="#FF267E"/>
<path d="M33.016 50.8295C34.5996 50.8295 35.8833 49.5457 35.8833 47.9621C35.8833 46.3784 34.5996 45.0947 33.016 45.0947C31.4323 45.0947 30.1486 46.3784 30.1486 47.9621C30.1486 49.5457 31.4323 50.8295 33.016 50.8295Z" fill="#FF267E"/>
<path d="M46.2726 47.9621C46.2726 49.5412 47.5609 50.8295 49.14 50.8295C50.7192 50.8295 52.0074 49.5412 52.0074 47.9621C52.0074 46.3829 50.7192 45.0947 49.14 45.0947C47.5609 45.0739 46.2726 46.3621 46.2726 47.9621Z" fill="#FF267E"/>
<path d="M46.2726 64.1067C46.2726 62.5276 47.5609 61.2393 49.14 61.2393C50.7192 61.2393 52.0074 62.5276 52.0074 64.1067C52.0074 65.6859 50.7192 66.9741 49.14 66.9741C47.5609 66.9741 46.2726 65.6859 46.2726 64.1067Z" fill="#FF267E"/>
<path d="M35.8833 64.1067C35.8833 62.5276 34.5951 61.2393 33.016 61.2393C31.4368 61.2393 30.1486 62.5276 30.1486 64.1067C30.1486 65.6859 31.4368 66.9741 33.016 66.9741C34.5951 66.9741 35.8833 65.6859 35.8833 64.1067Z" fill="#FF267E"/>
<path d="M50.9062 33.0017C50.9062 34.5809 49.618 35.8691 48.0388 35.8691C46.4597 35.8691 45.1714 34.5809 45.1714 33.0017C45.1714 31.4226 46.4597 30.1343 48.0388 30.1343C49.618 30.1136 50.9062 31.4018 50.9062 33.0017Z" fill="#33AB9C"/>
<path d="M64.1835 35.8691C65.7671 35.8691 67.0509 34.5854 67.0509 33.0017C67.0509 31.4181 65.7671 30.1343 64.1835 30.1343C62.5999 30.1343 61.3161 31.4181 61.3161 33.0017C61.3161 34.5854 62.5999 35.8691 64.1835 35.8691Z" fill="#33AB9C"/>
<path d="M61.2328 49.1464C61.2328 47.5673 62.5211 46.2791 64.1002 46.2791C65.6794 46.2791 66.9676 47.5673 66.9676 49.1464C66.9676 50.7256 65.6794 52.0138 64.1002 52.0138C62.5211 52.0138 61.2328 50.7256 61.2328 49.1464Z" fill="#33AB9C"/>
<path d="M66.6977 56.7305H55.332V45.3648C55.332 43.3909 53.7113 41.7702 51.7374 41.7702H40.3717V30.4045C40.3717 27.641 42.6157 25.3969 45.3792 25.3969H66.6977C69.4612 25.3969 71.7052 27.641 71.7052 30.4045V51.7229C71.7052 54.4864 69.4612 56.7305 66.6977 56.7305ZM56.7449 55.3176H66.6977C68.6716 55.3176 70.2923 53.6969 70.2923 51.7229V30.4045C70.2923 28.4305 68.6716 26.8098 66.6977 26.8098H45.3792C43.4053 26.8098 41.7846 28.4305 41.7846 30.4045V40.3572H51.7374C54.5009 40.3572 56.7449 42.6013 56.7449 45.3648V55.3176Z" fill="#05C48A"/>
<path d="M52.7553 71.6908H29.4006C27.1981 71.6908 25.4112 69.9039 25.4112 67.7014V44.3674C25.4112 42.1442 27.1981 40.3572 29.4006 40.3572H52.7346C54.937 40.3572 56.724 42.1442 56.724 44.3467V67.6806C56.7448 69.9039 54.9578 71.6908 52.7553 71.6908ZM29.4006 41.7702C27.9669 41.7702 26.8241 42.9337 26.8241 44.3467V67.6806C26.8241 69.1143 27.9877 70.2571 29.4006 70.2571H52.7346C54.1683 70.2571 55.3111 69.0935 55.3111 67.6806V44.3674C55.3111 42.9337 54.1475 41.7909 52.7346 41.7909H29.4006V41.7702Z" fill="#FF267E"/>
</g>
<defs>
<filter id="filter0_dd_2020_1188" x="0.411194" y="0.396912" width="96.294" height="96.2939" filterUnits="userSpaceOnUse" color-interpolation-filters="sRGB">
<feFlood flood-opacity="0" result="BackgroundImageFix"/>
<feColorMatrix in="SourceAlpha" type="matrix" values="0 0 0 0 0 0 0 0 0 0 0 0 0 0 0 0 0 0 127 0" result="hardAlpha"/>
<feOffset dy="3"/>
<feGaussianBlur stdDeviation="7"/>
<feComposite in2="hardAlpha" operator="out"/>
<feColorMatrix type="matrix" values="0 0 0 0 1 0 0 0 0 0.14902 0 0 0 0 0.494118 0 0 0 0.6 0"/>
<feBlend mode="normal" in2="BackgroundImageFix" result="effect1_dropShadow_2020_1188"/>
<feColorMatrix in="SourceAlpha" type="matrix" values="0 0 0 0 0 0 0 0 0 0 0 0 0 0 0 0 0 0 127 0" result="hardAlpha"/>
<feOffset/>
<feGaussianBlur stdDeviation="12.5"/>
<feComposite in2="hardAlpha" operator="out"/>
<feColorMatrix type="matrix" values="0 0 0 0 1 0 0 0 0 0.14902 0 0 0 0 0.494118 0 0 0 0.6 0"/>
<feBlend mode="normal" in2="effect1_dropShadow_2020_1188" result="effect2_dropShadow_2020_1188"/>
<feBlend mode="normal" in="SourceGraphic" in2="effect2_dropShadow_2020_1188" result="shape"/>
</filter>
</defs>
</svg>
