<svg width="204" height="12" viewBox="0 0 204 12" fill="none" xmlns="http://www.w3.org/2000/svg">
<path d="M203.946 11.376H54V0H203.946V11.376ZM55.5112 9.86471H202.435V1.51125H55.5112V9.86471Z" fill="#FF267E"/>
<path d="M144.874 3.05518H57.678V7.87677H144.874V3.05518Z" fill="#FF267E"/>
<path d="M41.5581 1.52778H39.7442V0H36.1163V1.52778H34V5.19444H35.814V6.72222H37.9302V8.55556H39.7442V11H41.8605V8.55556H43.6744V6.72222H44.8837V5.19444H47V1.52778H44.8837V0H41.5581V1.52778Z" fill="#FF267E"/>
<path d="M24.5581 1.52778H22.7442V0H19.1163V1.52778H17V5.19444H18.814V6.72222H20.9302V8.55556H22.7442V11H24.8605V8.55556H26.6744V6.72222H27.8837V5.19444H30V1.52778H27.8837V0H24.5581V1.52778Z" fill="#FF267E"/>
<path d="M7.55814 1.52778H5.74419V0H2.11628V1.52778H0V5.19444H1.81395V6.72222H3.93023V8.55556H5.74419V11H7.86047V8.55556H9.67442V6.72222H10.8837V5.19444H13V1.52778H10.8837V0H7.55814V1.52778Z" fill="#FF267E"/>
</svg>
