<svg width="39" height="36" viewBox="0 0 39 36" fill="none" xmlns="http://www.w3.org/2000/svg">
<path d="M7.91085 3.05176e-05H5.27441V2.63647H7.91085V3.05176e-05Z" fill="white"/>
<path d="M10.5471 3.05176e-05H7.91064V2.63647H10.5471V3.05176e-05Z" fill="white"/>
<path d="M13.1853 3.05176e-05H10.5488V2.63647H13.1853V3.05176e-05Z" fill="white"/>
<path d="M18.4577 2.63647H15.8213V5.27291H18.4577V2.63647Z" fill="white"/>
<path d="M5.27267 2.63647H2.63623V5.27291H5.27267V2.63647Z" fill="white"/>
<path d="M15.8215 3.05176e-05H13.1851V2.63647H15.8215V3.05176e-05Z" fill="white"/>
<path d="M15.8215 18.4595H13.1851V21.0959H15.8215V18.4595Z" fill="white"/>
<path d="M18.4577 15.8216H15.8213V18.458H18.4577V15.8216Z" fill="white"/>
<path d="M21.0959 5.27435H18.4595V7.91079H21.0959V5.27435Z" fill="white"/>
<path d="M21.0959 7.9108H18.4595V10.5472H21.0959V7.9108Z" fill="white"/>
<path d="M21.0959 10.5487H18.4595V13.1852H21.0959V10.5487Z" fill="white"/>
<path d="M21.0959 13.1851H18.4595V15.8216H21.0959V13.1851Z" fill="white"/>
<path d="M15.8215 18.4595H13.1851V21.0959H15.8215V18.4595Z" fill="white"/>
<path d="M13.1853 18.4595H10.5488V21.0959H13.1853V18.4595Z" fill="white"/>
<path d="M8.05294 23.7338H5.4165V26.3703H8.05294V23.7338Z" fill="white"/>
<path d="M10.5471 21.0959H7.91064V23.7324H10.5471V21.0959Z" fill="white"/>
<path d="M10.5471 18.4595H7.91064V21.0959H10.5471V18.4595Z" fill="white"/>
<path d="M2.63644 7.9108H0V10.5472H2.63644V7.9108Z" fill="white"/>
<path d="M2.63644 5.27435H0V7.91079H2.63644V5.27435Z" fill="white"/>
<path d="M2.63644 10.5487H0V13.1852H2.63644V10.5487Z" fill="white"/>
<path d="M2.63644 13.1851H0V15.8216H2.63644V13.1851Z" fill="white"/>
<path d="M7.91085 18.4595H5.27441V21.0959H7.91085V18.4595Z" fill="white"/>
<path d="M5.27267 15.8216H2.63623V18.458H5.27267V15.8216Z" fill="white"/>
<path d="M33.0144 16.3791H34.9761V18.3407H33.0144V16.3791Z" fill="white"/>
<path d="M31.0525 16.3791H33.0142V18.3407H31.0525V16.3791Z" fill="white"/>
<path d="M29.0901 16.3791H31.0518V18.3407H29.0901V16.3791Z" fill="white"/>
<path d="M25.1668 18.3407H27.1284V20.3024H25.1668V18.3407Z" fill="white"/>
<path d="M34.9773 18.3407H36.939V20.3024H34.9773V18.3407Z" fill="white"/>
<path d="M27.1282 16.3791H29.0898V18.3407H27.1282V16.3791Z" fill="white"/>
<path d="M27.1282 30.114H29.0898V32.0756H27.1282V30.114Z" fill="white"/>
<path d="M25.1668 28.1512H27.1284V30.1129H25.1668V28.1512Z" fill="white"/>
<path d="M23.2039 20.3034H25.1655V22.2651H23.2039V20.3034Z" fill="white"/>
<path d="M23.2039 22.2651H25.1655V24.2268H23.2039V22.2651Z" fill="white"/>
<path d="M23.2039 24.2279H25.1655V26.1896H23.2039V24.2279Z" fill="white"/>
<path d="M23.2039 26.1895H25.1655V28.1511H23.2039V26.1895Z" fill="white"/>
<path d="M27.1282 30.114H29.0898V32.0756H27.1282V30.114Z" fill="white"/>
<path d="M29.0901 30.114H31.0518V32.0756H29.0901V30.114Z" fill="white"/>
<path d="M32.9085 34.0384H34.8701V36H32.9085V34.0384Z" fill="white"/>
<path d="M31.0525 32.0756H33.0142V34.0373H31.0525V32.0756Z" fill="white"/>
<path d="M31.0525 30.114H33.0142V32.0756H31.0525V30.114Z" fill="white"/>
<path d="M36.9387 22.2651H38.9004V24.2268H36.9387V22.2651Z" fill="white"/>
<path d="M36.9387 20.3034H38.9004V22.2651H36.9387V20.3034Z" fill="white"/>
<path d="M36.9387 24.2279H38.9004V26.1896H36.9387V24.2279Z" fill="white"/>
<path d="M36.9387 26.1895H38.9004V28.1511H36.9387V26.1895Z" fill="white"/>
<path d="M33.0144 30.114H34.9761V32.0756H33.0144V30.114Z" fill="white"/>
<path d="M34.9773 28.1512H36.939V30.1129H34.9773V28.1512Z" fill="white"/>
</svg>
