<svg width="463" height="272" viewBox="0 0 463 272" fill="none" xmlns="http://www.w3.org/2000/svg">
<g clip-path="url(#clip0_2031_8690)">
<path d="M462.329 0H0.816895V353.65H462.329V0Z" stroke="#0303A2" stroke-width="0.6465" stroke-miterlimit="10"/>
<path d="M29.6611 0V353.656" stroke="#0303A2" stroke-width="0.6465" stroke-miterlimit="10"/>
<path d="M58.5054 0V353.656" stroke="#0303A2" stroke-width="0.6465" stroke-miterlimit="10"/>
<path d="M87.3555 0V353.656" stroke="#0303A2" stroke-width="0.6465" stroke-miterlimit="10"/>
<path d="M116.199 0V353.656" stroke="#0303A2" stroke-width="0.6465" stroke-miterlimit="10"/>
<path d="M145.043 0V353.656" stroke="#0303A2" stroke-width="0.6465" stroke-miterlimit="10"/>
<path d="M173.888 0V353.656" stroke="#0303A2" stroke-width="0.6465" stroke-miterlimit="10"/>
<path d="M202.732 0V353.656" stroke="#0303A2" stroke-width="0.6465" stroke-miterlimit="10"/>
<path d="M231.576 0V353.656" stroke="#0303A2" stroke-width="0.6465" stroke-miterlimit="10"/>
<path d="M260.42 0V353.656" stroke="#0303A2" stroke-width="0.6465" stroke-miterlimit="10"/>
<path d="M289.264 0V353.656" stroke="#0303A2" stroke-width="0.6465" stroke-miterlimit="10"/>
<path d="M318.108 0V353.656" stroke="#0303A2" stroke-width="0.6465" stroke-miterlimit="10"/>
<path d="M346.953 0V353.656" stroke="#0303A2" stroke-width="0.6465" stroke-miterlimit="10"/>
<path d="M375.797 0V353.656" stroke="#0303A2" stroke-width="0.6465" stroke-miterlimit="10"/>
<path d="M404.641 0V353.656" stroke="#0303A2" stroke-width="0.6465" stroke-miterlimit="10"/>
<path d="M433.485 0V353.656" stroke="#0303A2" stroke-width="0.6465" stroke-miterlimit="10"/>
<path d="M462.329 272.045H0.816895" stroke="#0303A2" stroke-width="0.6465" stroke-miterlimit="10"/>
<path d="M462.329 244.84H0.816895" stroke="#0303A2" stroke-width="0.6465" stroke-miterlimit="10"/>
<path d="M462.329 217.634H0.816895" stroke="#0303A2" stroke-width="0.6465" stroke-miterlimit="10"/>
<path d="M462.329 190.428H0.816895" stroke="#0303A2" stroke-width="0.6465" stroke-miterlimit="10"/>
<path d="M462.329 163.228H0.816895" stroke="#0303A2" stroke-width="0.6465" stroke-miterlimit="10"/>
<path d="M462.329 136.023H0.816895" stroke="#0303A2" stroke-width="0.6465" stroke-miterlimit="10"/>
<path d="M462.329 108.817H0.816895" stroke="#0303A2" stroke-width="0.6465" stroke-miterlimit="10"/>
<path d="M462.329 81.6111H0.816895" stroke="#0303A2" stroke-width="0.6465" stroke-miterlimit="10"/>
<path d="M462.329 54.4115H0.816895" stroke="#0303A2" stroke-width="0.6465" stroke-miterlimit="10"/>
<path d="M462.329 27.2057H0.816895" stroke="#0303A2" stroke-width="0.6465" stroke-miterlimit="10"/>
</g>
<defs>
<clipPath id="clip0_2031_8690">
<rect width="463" height="272" fill="white"/>
</clipPath>
</defs>
</svg>
