<svg width="319" height="310" viewBox="0 0 319 310" fill="none" xmlns="http://www.w3.org/2000/svg">
<g clip-path="url(#clip0_2621_6305)">
<path d="M319 0H1V356H319V0Z" stroke="#0303A2" stroke-width="0.6465" stroke-miterlimit="10"/>
<path d="M20.436 0V244.439" stroke="#0303A2" stroke-width="0.6465" stroke-miterlimit="10"/>
<path d="M20.436 244V488.439" stroke="#0303A2" stroke-width="0.6465" stroke-miterlimit="10"/>
<path d="M40.3091 0V244.439" stroke="#0303A2" stroke-width="0.6465" stroke-miterlimit="10"/>
<path d="M40.3091 244V488.439" stroke="#0303A2" stroke-width="0.6465" stroke-miterlimit="10"/>
<path d="M60.1865 0V244.439" stroke="#0303A2" stroke-width="0.6465" stroke-miterlimit="10"/>
<path d="M60.1865 244V488.439" stroke="#0303A2" stroke-width="0.6465" stroke-miterlimit="10"/>
<path d="M80.0596 0V244.439" stroke="#0303A2" stroke-width="0.6465" stroke-miterlimit="10"/>
<path d="M80.0596 244V488.439" stroke="#0303A2" stroke-width="0.6465" stroke-miterlimit="10"/>
<path d="M99.9326 0V244.439" stroke="#0303A2" stroke-width="0.6465" stroke-miterlimit="10"/>
<path d="M99.9326 244V488.439" stroke="#0303A2" stroke-width="0.6465" stroke-miterlimit="10"/>
<path d="M119.806 0V244.439" stroke="#0303A2" stroke-width="0.6465" stroke-miterlimit="10"/>
<path d="M119.806 244V488.439" stroke="#0303A2" stroke-width="0.6465" stroke-miterlimit="10"/>
<path d="M139.679 0V244.439" stroke="#0303A2" stroke-width="0.6465" stroke-miterlimit="10"/>
<path d="M139.679 244V488.439" stroke="#0303A2" stroke-width="0.6465" stroke-miterlimit="10"/>
<path d="M159.552 0V244.439" stroke="#0303A2" stroke-width="0.6465" stroke-miterlimit="10"/>
<path d="M159.552 244V488.439" stroke="#0303A2" stroke-width="0.6465" stroke-miterlimit="10"/>
<path d="M179.426 0V244.439" stroke="#0303A2" stroke-width="0.6465" stroke-miterlimit="10"/>
<path d="M179.426 244V488.439" stroke="#0303A2" stroke-width="0.6465" stroke-miterlimit="10"/>
<path d="M199.298 0V244.439" stroke="#0303A2" stroke-width="0.6465" stroke-miterlimit="10"/>
<path d="M199.298 244V488.439" stroke="#0303A2" stroke-width="0.6465" stroke-miterlimit="10"/>
<path d="M219.172 0V244.439" stroke="#0303A2" stroke-width="0.6465" stroke-miterlimit="10"/>
<path d="M219.172 244V488.439" stroke="#0303A2" stroke-width="0.6465" stroke-miterlimit="10"/>
<path d="M239.045 0V244.439" stroke="#0303A2" stroke-width="0.6465" stroke-miterlimit="10"/>
<path d="M239.045 244V488.439" stroke="#0303A2" stroke-width="0.6465" stroke-miterlimit="10"/>
<path d="M258.918 0V244.439" stroke="#0303A2" stroke-width="0.6465" stroke-miterlimit="10"/>
<path d="M258.918 244V488.439" stroke="#0303A2" stroke-width="0.6465" stroke-miterlimit="10"/>
<path d="M278.792 0V244.439" stroke="#0303A2" stroke-width="0.6465" stroke-miterlimit="10"/>
<path d="M278.792 244V488.439" stroke="#0303A2" stroke-width="0.6465" stroke-miterlimit="10"/>
<path d="M298.665 0V244.439" stroke="#0303A2" stroke-width="0.6465" stroke-miterlimit="10"/>
<path d="M298.665 244V488.439" stroke="#0303A2" stroke-width="0.6465" stroke-miterlimit="10"/>
<path d="M318.538 225.635H0.562988" stroke="#0303A2" stroke-width="0.6465" stroke-miterlimit="10"/>
<path d="M318.538 206.831H0.562988" stroke="#0303A2" stroke-width="0.6465" stroke-miterlimit="10"/>
<path d="M318.538 188.031H0.562988" stroke="#0303A2" stroke-width="0.6465" stroke-miterlimit="10"/>
<path d="M318.538 169.227H0.562988" stroke="#0303A2" stroke-width="0.6465" stroke-miterlimit="10"/>
<path d="M318.538 150.423H0.562988" stroke="#0303A2" stroke-width="0.6465" stroke-miterlimit="10"/>
<path d="M318.538 131.619H0.562988" stroke="#0303A2" stroke-width="0.6465" stroke-miterlimit="10"/>
<path d="M318.538 112.82H0.562988" stroke="#0303A2" stroke-width="0.6465" stroke-miterlimit="10"/>
<path d="M318.538 94.0157H0.562988" stroke="#0303A2" stroke-width="0.6465" stroke-miterlimit="10"/>
<path d="M318.538 75.2117H0.562988" stroke="#0303A2" stroke-width="0.6465" stroke-miterlimit="10"/>
<path d="M318.538 56.4076H0.562988" stroke="#0303A2" stroke-width="0.6465" stroke-miterlimit="10"/>
<path d="M318.538 300.408H0.562988" stroke="#0303A2" stroke-width="0.6465" stroke-miterlimit="10"/>
<path d="M318.538 37.6079H0.562988" stroke="#0303A2" stroke-width="0.6465" stroke-miterlimit="10"/>
<path d="M318.538 281.608H0.562988" stroke="#0303A2" stroke-width="0.6465" stroke-miterlimit="10"/>
<path d="M318.538 18.804H0.562988" stroke="#0303A2" stroke-width="0.6465" stroke-miterlimit="10"/>
<path d="M318.538 262.804H0.562988" stroke="#0303A2" stroke-width="0.6465" stroke-miterlimit="10"/>
</g>
<defs>
<clipPath id="clip0_2621_6305">
<rect width="319" height="310" fill="white"/>
</clipPath>
</defs>
</svg>
