<svg width="440" height="269" viewBox="0 0 440 269" fill="none" xmlns="http://www.w3.org/2000/svg">
<path d="M439.95 253.075C439.95 261.794 432.877 268.865 424.156 268.865H15.8344C7.11284 268.865 0.0405273 261.794 0.0405273 253.075V16.1578C0.0405273 7.42901 7.11284 0.367706 15.8344 0.367706H424.156C432.877 0.367706 439.95 7.43833 439.95 16.1578V253.075Z" fill="#1D1D9A"/>
<path d="M433.381 7.10294H6.61914V262.129H433.381V7.10294Z" fill="#4141E3"/>
<path opacity="0.1" d="M433 7H7V11H433V7Z" fill="white"/>
<path opacity="0.1" d="M433 119H7V123H433V119Z" fill="white"/>
<path opacity="0.1" d="M433 63H7V67H433V63Z" fill="white"/>
<path opacity="0.1" d="M433 175H7V179H433V175Z" fill="white"/>
<path opacity="0.1" d="M433 35H7V39H433V35Z" fill="white"/>
<path opacity="0.1" d="M433 147H7V151H433V147Z" fill="white"/>
<path opacity="0.1" d="M433 91H7V95H433V91Z" fill="white"/>
<path opacity="0.1" d="M433 203H7V207H433V203Z" fill="white"/>
<path opacity="0.1" d="M433 238H7V242H433V238Z" fill="white"/>
<path opacity="0.1" d="M433 21H7V25H433V21Z" fill="white"/>
<path opacity="0.1" d="M433 133H7V137H433V133Z" fill="white"/>
<path opacity="0.1" d="M433 77H7V81H433V77Z" fill="white"/>
<path opacity="0.1" d="M433 189H7V193H433V189Z" fill="white"/>
<path opacity="0.1" d="M433 49H7V53H433V49Z" fill="white"/>
<path opacity="0.1" d="M433 161H7V165H433V161Z" fill="white"/>
<path opacity="0.1" d="M433 105H7V109H433V105Z" fill="white"/>
<path opacity="0.1" d="M433 217H7V221H433V217Z" fill="white"/>
<path opacity="0.1" d="M433 252H7V256H433V252Z" fill="white"/>
<path opacity="0.1" d="M433 14H7V18H433V14Z" fill="white"/>
<path opacity="0.1" d="M433 126H7V130H433V126Z" fill="white"/>
<path opacity="0.1" d="M433 70H7V74H433V70Z" fill="white"/>
<path opacity="0.1" d="M433 182H7V186H433V182Z" fill="white"/>
<path opacity="0.1" d="M433 42H7V46H433V42Z" fill="white"/>
<path opacity="0.1" d="M433 154H7V158H433V154Z" fill="white"/>
<path opacity="0.1" d="M433 98H7V102H433V98Z" fill="white"/>
<path opacity="0.1" d="M433 210H7V214H433V210Z" fill="white"/>
<path opacity="0.1" d="M433 245H7V249H433V245Z" fill="white"/>
<path opacity="0.1" d="M433 28H7V32H433V28Z" fill="white"/>
<path opacity="0.1" d="M433 140H7V144H433V140Z" fill="white"/>
<path opacity="0.1" d="M433 84H7V88H433V84Z" fill="white"/>
<path opacity="0.1" d="M433 196H7V200H433V196Z" fill="white"/>
<path opacity="0.1" d="M433 231H7V235H433V231Z" fill="white"/>
<path opacity="0.1" d="M433 56H7V60H433V56Z" fill="white"/>
<path opacity="0.1" d="M433 168H7V172H433V168Z" fill="white"/>
<path opacity="0.1" d="M433 112H7V116H433V112Z" fill="white"/>
<path opacity="0.1" d="M433 224H7V228H433V224Z" fill="white"/>
<path opacity="0.1" d="M433 259H7V263H433V259Z" fill="white"/>
</svg>
