<svg width="145" height="18" viewBox="0 0 145 18" fill="none" xmlns="http://www.w3.org/2000/svg">
<path d="M0.00220786 2.54496L12.7953 15.3453L14.3374 13.8042L1.54422 1.00381L0.00220786 2.54496Z" fill="#FF267E"/>
<path d="M-1.58481e-05 13.8022L1.54156 15.3438L14.3383 2.54705L12.7967 1.00547L-1.58481e-05 13.8022Z" fill="#FF267E"/>
<path d="M27.1481 2.54624L39.9413 15.3466L41.4833 13.8055L28.6902 1.0051L27.1481 2.54624Z" fill="#FF267E"/>
<path d="M27.1448 13.8025L28.6863 15.3441L41.4831 2.5473L39.9415 1.00572L27.1448 13.8025Z" fill="#FF267E"/>
<path d="M54.2927 2.5416L67.0876 15.342L68.6297 13.8006L55.8347 1.00024L54.2927 2.5416Z" fill="#FF267E"/>
<path d="M54.2895 13.8024L55.8311 15.3439L68.6279 2.54717L67.0863 1.00559L54.2895 13.8024Z" fill="#FF267E"/>
<path d="M141.819 7.99512L85 7.99512L85 10.3275L141.819 10.3275L141.819 7.99512Z" fill="#FF267E" stroke="#FF267E" stroke-width="0.5"/>
<path d="M137.024 1L134.699 1L134.699 3.33237L137.024 3.33237L137.024 1Z" fill="#FF267E" stroke="#FF267E" stroke-width="0.5"/>
<path d="M139.35 3.33142L137.024 3.33142L137.024 5.66379L139.35 5.66379L139.35 3.33142Z" fill="#FF267E" stroke="#FF267E" stroke-width="0.5"/>
<path d="M141.674 5.66394L139.349 5.66394L139.349 7.99631L141.674 7.99631L141.674 5.66394Z" fill="#FF267E" stroke="#FF267E" stroke-width="0.5"/>
<path d="M144 7.99536L141.674 7.99536L141.674 10.3277L144 10.3277L144 7.99536Z" fill="#FF267E" stroke="#FF267E" stroke-width="0.5"/>
<path d="M143.999 10.3281L143.999 7.99573L141.674 7.99573L141.674 10.3281L143.999 10.3281Z" fill="#FF267E" stroke="#FF267E" stroke-width="0.5"/>
<path d="M141.673 12.6595L141.673 10.3271L139.348 10.3271L139.348 12.6595L141.673 12.6595Z" fill="#FF267E" stroke="#FF267E" stroke-width="0.5"/>
<path d="M139.349 14.9918L139.349 12.6594L137.023 12.6594L137.023 14.9918L139.349 14.9918Z" fill="#FF267E" stroke="#FF267E" stroke-width="0.5"/>
<path d="M137.023 17.3231L137.023 14.9907L134.698 14.9907L134.698 17.3231L137.023 17.3231Z" fill="#FF267E" stroke="#FF267E" stroke-width="0.5"/>
</svg>
